<svg width="137" height="41" viewBox="0 0 137 41" fill="none" xmlns="http://www.w3.org/2000/svg">
<path d="M68.5464 29.6589H59.8802L57.6302 34.5843H54.3347L64.3458 13.0195L74.0121 34.5811H70.6687L68.5464 29.6589ZM67.3013 26.779L64.3003 19.8793L61.154 26.779H67.3013Z" fill="white"/>
<path d="M75.3952 21.7847L78.6995 28.9732L81.9895 21.7847H85.3089L78.6724 34.577L72.0925 21.7847H75.3952Z" fill="white"/>
<path d="M97.7967 28.8822H88.6427C88.6721 29.8146 89.035 30.7052 89.6652 31.3917C89.9677 31.6972 90.33 31.9366 90.7293 32.0949C91.1286 32.2532 91.5562 32.327 91.9854 32.3117C92.6336 32.3374 93.2728 32.1531 93.8083 31.7861C94.4519 31.2336 94.9971 30.5754 95.4206 29.8398L97.9108 31.2317C97.5642 31.8355 97.1557 32.4015 96.692 32.9205C96.2888 33.3679 95.8255 33.757 95.3152 34.0764C94.8238 34.3796 94.2878 34.6034 93.7269 34.7396C93.1214 34.8838 92.5008 34.9544 91.8784 34.95C91.027 34.9871 90.1774 34.8423 89.3862 34.5251C88.5949 34.2078 87.8801 33.7255 87.2891 33.11C86.0932 31.7618 85.4717 29.9978 85.5579 28.1958C85.4756 26.4041 86.0746 24.6479 87.234 23.2816C88.4217 22.1038 90.0223 21.4388 91.693 21.4291C93.3638 21.4193 94.972 22.0657 96.1732 23.2296C97.3236 24.6137 97.9049 26.3848 97.7991 28.183L97.7967 28.8822ZM94.7677 26.4607C94.6538 25.7664 94.2859 25.1394 93.7358 24.7022C93.1856 24.265 92.4927 24.0489 91.7922 24.096C91.4491 24.0923 91.1078 24.1464 90.7826 24.256C90.4715 24.3638 90.1811 24.524 89.9238 24.7296C89.6636 24.9385 89.44 25.1894 89.2621 25.472C89.0713 25.7763 88.9296 26.1089 88.8423 26.4575L94.7677 26.4607Z" fill="white"/>
<path d="M107.77 23.9672L105.331 25.2687C104.948 24.4794 104.472 24.0853 103.903 24.0864C103.646 24.0803 103.396 24.1757 103.208 24.352C103.113 24.4394 103.038 24.5464 102.989 24.6655C102.939 24.7847 102.916 24.9133 102.92 25.0424C102.92 25.533 103.488 26.0191 104.624 26.5007C105.781 26.9256 106.851 27.5577 107.782 28.3662C108.347 28.9947 108.639 29.8218 108.596 30.6661C108.607 31.2513 108.491 31.8318 108.255 32.3674C108.02 32.903 107.671 33.3808 107.233 33.7676C106.639 34.279 105.931 34.6398 105.168 34.8198C104.406 34.9997 103.612 34.9935 102.853 34.8017C102.094 34.6098 101.391 34.2379 100.805 33.7173C100.219 33.1967 99.7668 32.5426 99.4857 31.8101L102.002 30.6405C102.216 31.0636 102.485 31.4568 102.8 31.8101C103.147 32.1384 103.608 32.3176 104.085 32.3093C105.081 32.3093 105.579 31.8538 105.58 30.9429C105.58 30.4176 105.196 29.9272 104.426 29.4718C104.129 29.323 103.832 29.1785 103.535 29.0382C103.238 28.8979 102.936 28.7534 102.63 28.6046C101.949 28.31 101.334 27.881 100.821 27.3431C100.358 26.7581 100.12 26.0253 100.152 25.2791C100.137 24.7646 100.231 24.2526 100.428 23.7771C100.625 23.3015 100.92 22.8731 101.294 22.5201C102.058 21.798 103.075 21.4064 104.125 21.4297C104.919 21.426 105.695 21.6678 106.347 22.1222C106.999 22.5765 107.496 23.2214 107.769 23.9688L107.77 23.9672Z" fill="white"/>
<path d="M110.577 12.3916H113.53V22.8496C114.463 21.9515 115.703 21.4443 116.997 21.4312C117.641 21.403 118.283 21.514 118.88 21.7567C119.477 21.9993 120.015 22.368 120.458 22.8376C121.287 23.9601 121.679 25.348 121.559 26.7398V34.5843H118.606V27.019C118.671 26.2372 118.48 25.4556 118.062 24.7919C117.844 24.5485 117.572 24.3595 117.269 24.2399C116.965 24.1203 116.637 24.0735 116.312 24.1031C115.897 24.0606 115.479 24.1267 115.097 24.2949C114.716 24.4632 114.384 24.7279 114.136 25.0631C113.642 26.1021 113.428 27.253 113.518 28.4006V34.5923H110.565L110.577 12.3916Z" fill="white"/>
<path d="M134.037 21.7855H137V34.585H134.037V33.2435C132.986 34.3198 131.552 34.9338 130.05 34.9504C128.547 34.9671 127.1 34.385 126.026 33.3323C125.927 33.2357 125.832 33.1357 125.741 33.0323C124.577 31.6757 123.964 29.9299 124.024 28.1413C123.965 26.3803 124.579 24.6633 125.741 23.3415C126.273 22.7243 126.934 22.2323 127.677 21.9004C128.421 21.5686 129.228 21.4051 130.041 21.4215C130.799 21.4313 131.546 21.6001 132.235 21.917C132.924 22.2339 133.539 22.6919 134.041 23.2615L134.037 21.7855ZM127.037 28.1461C126.99 29.2315 127.341 30.2967 128.023 31.1412C128.331 31.5155 128.72 31.815 129.16 32.0176C129.601 32.2201 130.081 32.3203 130.565 32.3107C131.062 32.3286 131.556 32.2366 132.014 32.0414C132.471 31.8462 132.879 31.5525 133.21 31.1812C133.865 30.3301 134.219 29.286 134.219 28.2117C134.219 27.1374 133.865 26.0933 133.21 25.2422C132.885 24.8689 132.481 24.5727 132.028 24.375C131.574 24.1773 131.083 24.083 130.589 24.099C130.106 24.0913 129.627 24.1909 129.187 24.3908C128.747 24.5907 128.357 24.8858 128.045 25.255C127.362 26.0596 127.002 27.0902 127.035 28.1461H127.037Z" fill="white"/>
<path d="M26.4006 0.39209L16.6824 21.6984L21.2278 25.9111L26.0765 30.4101L30.9229 25.9111L35.6806 21.5008L26.4006 0.39209Z" fill="url(#paint0_linear_2633_11)"/>
<path d="M0 6.2334L8.15465 40.392L16.6764 21.7008L0 6.2334Z" fill="#69BDFA"/>
<path d="M21.2244 25.9118L16.683 21.6992L8.15959 40.3897H15.3118L26.0788 30.4109L21.2244 25.9118Z" fill="url(#paint1_linear_2633_11)"/>
<path d="M35.6866 21.5009L43.9985 40.3905L52.1595 6.23828L35.6866 21.5009Z" fill="#69BDFA"/>
<path d="M30.9302 25.9104L26.0823 30.407L36.8461 40.3882H44.0006L35.6904 21.4985L30.9302 25.9104Z" fill="url(#paint2_linear_2633_11)"/>
<path d="M15.3107 40.3889H36.8423L26.0777 30.4077L15.3107 40.3889Z" fill="#2868F3"/>
<defs>
<linearGradient id="paint0_linear_2633_11" x1="24.8136" y1="-7.20246" x2="28.213" y2="31.613" gradientUnits="userSpaceOnUse">
<stop stop-color="#2C2AD2"/>
<stop offset="1" stop-color="#2BBAFE"/>
</linearGradient>
<linearGradient id="paint1_linear_2633_11" x1="17.1192" y1="21.6992" x2="17.1192" y2="40.3897" gradientUnits="userSpaceOnUse">
<stop stop-color="#2863E4"/>
<stop offset="1" stop-color="#3A87F4"/>
</linearGradient>
<linearGradient id="paint2_linear_2633_11" x1="35.0415" y1="21.4985" x2="35.0415" y2="40.3882" gradientUnits="userSpaceOnUse">
<stop stop-color="#2863E4"/>
<stop offset="1" stop-color="#3A87F4"/>
</linearGradient>
</defs>
</svg>
