<svg width="145" height="63" viewBox="0 0 145 63" fill="none" xmlns="http://www.w3.org/2000/svg">
<path d="M72.5464 39.6589H63.8802L61.6302 44.5843H58.3347L68.3458 23.0195L78.0121 44.5811H74.6687L72.5464 39.6589ZM71.3013 36.779L68.3003 29.8793L65.154 36.779H71.3013Z" fill="white"/>
<path d="M79.3952 31.7847L82.6995 38.9732L85.9895 31.7847H89.3089L82.6724 44.577L76.0925 31.7847H79.3952Z" fill="white"/>
<path d="M101.797 38.8822H92.6427C92.6721 39.8146 93.035 40.7052 93.6652 41.3917C93.9677 41.6972 94.33 41.9366 94.7293 42.0949C95.1286 42.2532 95.5562 42.327 95.9854 42.3117C96.6336 42.3374 97.2728 42.1531 97.8083 41.7861C98.4519 41.2336 98.9971 40.5754 99.4206 39.8398L101.911 41.2317C101.564 41.8355 101.156 42.4015 100.692 42.9205C100.289 43.3679 99.8255 43.757 99.3152 44.0764C98.8238 44.3796 98.2878 44.6034 97.7269 44.7396C97.1214 44.8838 96.5008 44.9544 95.8784 44.95C95.027 44.9871 94.1774 44.8423 93.3862 44.5251C92.5949 44.2078 91.8801 43.7255 91.2891 43.11C90.0932 41.7618 89.4717 39.9978 89.5579 38.1958C89.4756 36.4041 90.0746 34.6479 91.234 33.2816C92.4217 32.1038 94.0223 31.4388 95.693 31.4291C97.3638 31.4193 98.972 32.0657 100.173 33.2296C101.324 34.6137 101.905 36.3848 101.799 38.183L101.797 38.8822ZM98.7677 36.4607C98.6538 35.7664 98.2859 35.1394 97.7358 34.7022C97.1856 34.265 96.4927 34.0489 95.7922 34.096C95.4491 34.0923 95.1078 34.1464 94.7826 34.256C94.4715 34.3638 94.1811 34.524 93.9238 34.7296C93.6636 34.9385 93.44 35.1894 93.2621 35.472C93.0713 35.7763 92.9296 36.1089 92.8423 36.4575L98.7677 36.4607Z" fill="white"/>
<path d="M111.77 33.9672L109.331 35.2687C108.948 34.4794 108.472 34.0853 107.903 34.0864C107.646 34.0803 107.396 34.1757 107.208 34.352C107.113 34.4394 107.038 34.5464 106.989 34.6655C106.939 34.7847 106.916 34.9133 106.92 35.0424C106.92 35.533 107.488 36.0191 108.624 36.5007C109.781 36.9256 110.851 37.5577 111.782 38.3662C112.347 38.9947 112.639 39.8218 112.596 40.6661C112.607 41.2513 112.491 41.8318 112.255 42.3674C112.02 42.903 111.671 43.3808 111.233 43.7676C110.639 44.279 109.931 44.6398 109.168 44.8198C108.406 44.9997 107.612 44.9935 106.853 44.8017C106.094 44.6098 105.391 44.2379 104.805 43.7173C104.219 43.1967 103.767 42.5426 103.486 41.8101L106.002 40.6405C106.216 41.0636 106.485 41.4568 106.8 41.8101C107.147 42.1384 107.608 42.3176 108.085 42.3093C109.081 42.3093 109.579 41.8538 109.58 40.9429C109.58 40.4176 109.196 39.9272 108.426 39.4718C108.129 39.323 107.832 39.1785 107.535 39.0382C107.238 38.8979 106.936 38.7534 106.63 38.6046C105.949 38.31 105.334 37.881 104.821 37.3431C104.358 36.7581 104.12 36.0253 104.152 35.2791C104.137 34.7646 104.231 34.2526 104.428 33.7771C104.625 33.3015 104.92 32.8731 105.294 32.5201C106.058 31.798 107.075 31.4064 108.125 31.4297C108.919 31.426 109.695 31.6678 110.347 32.1222C110.999 32.5765 111.496 33.2214 111.769 33.9688L111.77 33.9672Z" fill="white"/>
<path d="M114.577 22.3916H117.53V32.8496C118.463 31.9515 119.703 31.4443 120.997 31.4312C121.641 31.403 122.283 31.514 122.88 31.7567C123.477 31.9993 124.015 32.368 124.458 32.8376C125.287 33.9601 125.679 35.348 125.559 36.7398V44.5843H122.606V37.019C122.671 36.2372 122.48 35.4556 122.062 34.7919C121.844 34.5485 121.572 34.3595 121.269 34.2399C120.965 34.1203 120.637 34.0735 120.312 34.1031C119.897 34.0606 119.479 34.1267 119.097 34.2949C118.716 34.4632 118.384 34.7279 118.136 35.0631C117.642 36.1021 117.428 37.253 117.518 38.4006V44.5923H114.565L114.577 22.3916Z" fill="white"/>
<path d="M138.037 31.7855H141V44.585H138.037V43.2435C136.986 44.3198 135.552 44.9338 134.05 44.9504C132.547 44.9671 131.1 44.385 130.026 43.3323C129.927 43.2357 129.832 43.1357 129.741 43.0323C128.577 41.6757 127.964 39.9299 128.024 38.1413C127.965 36.3803 128.579 34.6633 129.741 33.3415C130.273 32.7243 130.934 32.2323 131.677 31.9004C132.421 31.5686 133.228 31.4051 134.041 31.4215C134.799 31.4313 135.546 31.6001 136.235 31.917C136.924 32.2339 137.539 32.6919 138.041 33.2615L138.037 31.7855ZM131.037 38.1461C130.99 39.2315 131.341 40.2967 132.023 41.1412C132.331 41.5155 132.72 41.815 133.16 42.0176C133.601 42.2201 134.081 42.3203 134.565 42.3107C135.062 42.3286 135.556 42.2366 136.014 42.0414C136.471 41.8462 136.879 41.5525 137.21 41.1812C137.865 40.3301 138.219 39.286 138.219 38.2117C138.219 37.1374 137.865 36.0933 137.21 35.2422C136.885 34.8689 136.481 34.5727 136.028 34.375C135.574 34.1773 135.083 34.083 134.589 34.099C134.106 34.0913 133.627 34.1909 133.187 34.3908C132.747 34.5907 132.357 34.8858 132.045 35.255C131.362 36.0596 131.002 37.0902 131.035 38.1461H131.037Z" fill="white"/>
<path d="M30.4006 10.3921L20.6824 31.6984L25.2278 35.9111L30.0765 40.4101L34.9229 35.9111L39.6806 31.5008L30.4006 10.3921Z" fill="url(#paint0_linear_2617_4471)"/>
<path d="M4 16.2334L12.1547 50.392L20.6764 31.7008L4 16.2334Z" fill="#69BDFA"/>
<path d="M25.2244 35.9118L20.683 31.6992L12.1596 50.3897H19.3118L30.0788 40.4109L25.2244 35.9118Z" fill="url(#paint1_linear_2617_4471)"/>
<path d="M39.6866 31.5009L47.9985 50.3905L56.1595 16.2383L39.6866 31.5009Z" fill="#69BDFA"/>
<path d="M34.9302 35.9104L30.0823 40.407L40.8461 50.3882H48.0006L39.6904 31.4985L34.9302 35.9104Z" fill="url(#paint2_linear_2617_4471)"/>
<path d="M19.3107 50.3889H40.8423L30.0777 40.4077L19.3107 50.3889Z" fill="#2868F3"/>
<defs>
<linearGradient id="paint0_linear_2617_4471" x1="28.8136" y1="2.79754" x2="32.213" y2="41.613" gradientUnits="userSpaceOnUse">
<stop stop-color="#2C2AD2"/>
<stop offset="1" stop-color="#2BBAFE"/>
</linearGradient>
<linearGradient id="paint1_linear_2617_4471" x1="21.1192" y1="31.6992" x2="21.1192" y2="50.3897" gradientUnits="userSpaceOnUse">
<stop stop-color="#2863E4"/>
<stop offset="1" stop-color="#3A87F4"/>
</linearGradient>
<linearGradient id="paint2_linear_2617_4471" x1="39.0415" y1="31.4985" x2="39.0415" y2="50.3882" gradientUnits="userSpaceOnUse">
<stop stop-color="#2863E4"/>
<stop offset="1" stop-color="#3A87F4"/>
</linearGradient>
</defs>
</svg>
