<svg width="19" height="18" viewBox="0 0 19 18" fill="none" xmlns="http://www.w3.org/2000/svg">
<path d="M4.44644 5.88672H0.559814V17.5644H4.44644V5.88672Z" fill="white"/>
<path d="M4.70178 2.2749C4.67655 1.12991 3.85776 0.257812 2.52817 0.257812C1.19859 0.257812 0.329346 1.12991 0.329346 2.2749C0.329346 3.39617 1.17289 4.29337 2.47772 4.29337H2.50256C3.85776 4.29337 4.70178 3.39617 4.70178 2.2749Z" fill="white"/>
<path d="M18.4622 10.8676C18.4622 7.28072 16.5449 5.61133 13.9873 5.61133C11.9237 5.61133 10.9999 6.74477 10.484 7.5399V5.88585H6.59692C6.64815 6.98163 6.59692 17.5635 6.59692 17.5635H10.484V11.0418C10.484 10.6927 10.5092 10.3446 10.612 10.0947C10.8929 9.39748 11.5325 8.67559 12.6062 8.67559C14.0132 8.67559 14.5756 9.74641 14.5756 11.3157V17.5632H18.4621L18.4622 10.8676Z" fill="white"/>
</svg>
