<svg width="20" height="20" viewBox="0 0 20 20" fill="none" xmlns="http://www.w3.org/2000/svg">
<path fill-rule="evenodd" clip-rule="evenodd" d="M7.42854 0.39209C6.37824 0.392866 5.52822 1.24521 5.529 2.29551C5.52822 3.3458 6.37902 4.19815 7.42931 4.19892H9.32962V2.29628C9.3304 1.24599 8.47961 0.393642 7.42854 0.39209C7.42931 0.39209 7.42931 0.39209 7.42854 0.39209M7.42854 5.4689H2.36259C1.3123 5.46968 0.461506 6.32202 0.462282 7.37232C0.46073 8.42261 1.31152 9.27496 2.36182 9.27651H7.42854C8.47883 9.27573 9.32962 8.42339 9.32885 7.37309C9.32962 6.32202 8.47883 5.46968 7.42854 5.4689Z" fill="white"/>
<path fill-rule="evenodd" clip-rule="evenodd" d="M19.4624 7.37232C19.4632 6.32202 18.6124 5.46968 17.5621 5.4689C16.5118 5.46968 15.661 6.32202 15.6618 7.37232V9.27651H17.5621C18.6124 9.27573 19.4632 8.42339 19.4624 7.37232ZM14.3957 7.37232V2.29551C14.3964 1.24599 13.5464 0.393642 12.4961 0.39209C11.4458 0.392866 10.5951 1.24521 10.5958 2.29551V7.37232C10.5943 8.42261 11.4451 9.27496 12.4954 9.27651C13.5457 9.27573 14.3964 8.42339 14.3957 7.37232Z" fill="white"/>
<path fill-rule="evenodd" clip-rule="evenodd" d="M12.4952 19.4304C13.5455 19.4296 14.3962 18.5772 14.3955 17.5269C14.3962 16.4767 13.5455 15.6243 12.4952 15.6235H10.5948V17.5269C10.5941 18.5765 11.4449 19.4288 12.4952 19.4304ZM12.4952 14.3528H17.5619C18.6122 14.352 19.463 13.4997 19.4622 12.4494C19.4637 11.3991 18.6129 10.5467 17.5627 10.5452H12.4959C11.4456 10.5459 10.5948 11.3983 10.5956 12.4486C10.5948 13.4997 11.4449 14.352 12.4952 14.3528Z" fill="white"/>
<path fill-rule="evenodd" clip-rule="evenodd" d="M0.462281 12.4491C0.461505 13.4994 1.3123 14.3517 2.36259 14.3525C3.41289 14.3517 4.26368 13.4994 4.2629 12.4491V10.5457H2.36259C1.3123 10.5464 0.461505 11.3988 0.462281 12.4491ZM5.529 12.4491V17.5259C5.52745 18.5762 6.37824 19.4285 7.42853 19.4301C8.47883 19.4293 9.32962 18.577 9.32885 17.5267V12.4506C9.3304 11.4003 8.4796 10.548 7.42931 10.5464C6.37824 10.5464 5.52822 11.3988 5.529 12.4491C5.529 12.4498 5.529 12.4491 5.529 12.4491Z" fill="white"/>
</svg>
