<svg width="24" height="17" viewBox="0 0 24 17" fill="none" xmlns="http://www.w3.org/2000/svg">
<path d="M12.5251 16.8902L7.78546 16.8034C6.25087 16.7731 4.71246 16.8335 3.20796 16.5202C0.91927 16.0521 0.757131 13.7568 0.58747 11.8314C0.353694 9.12466 0.444196 6.36876 0.885361 3.68459C1.13441 2.17849 2.11454 1.27978 3.63026 1.18199C8.74695 0.827071 13.8977 0.869132 19.003 1.03471C19.5422 1.04989 20.0851 1.13286 20.6168 1.22729C23.2412 1.68788 23.3052 4.28898 23.4753 6.47861C23.645 8.69084 23.5733 10.9144 23.2491 13.1116C22.9889 14.9308 22.4911 16.4563 20.3905 16.6036C17.7586 16.7962 15.187 16.9512 12.5477 16.9019C12.5478 16.8902 12.5326 16.8902 12.5251 16.8902ZM9.73865 12.2845C11.722 11.1443 13.6676 10.0231 15.6396 8.8906C13.6525 7.75042 11.7107 6.62924 9.73865 5.49671V12.2845Z" fill="white"/>
</svg>
