<svg width="16" height="16" viewBox="0 0 16 16" fill="none" xmlns="http://www.w3.org/2000/svg">
<path fill-rule="evenodd" clip-rule="evenodd" d="M3.15434 3.76327C3.10752 4.10375 3.10592 4.56585 3.10592 5.28073L3.10592 12.3572L4.23528 11.9891L6.11756 12.6025L7.99983 11.9891L9.1292 12.3572L9.1292 4.17648C9.1292 3.78131 9.22018 3.40692 9.38279 3.07224L5.36465 3.07223C4.63351 3.07223 4.1609 3.0738 3.81268 3.11957C3.48611 3.1625 3.38376 3.23181 3.32644 3.28785C3.26913 3.34389 3.19824 3.44397 3.15434 3.76327ZM11.7644 3.07224C11.1407 3.07223 10.635 3.56662 10.635 4.17648L10.635 5.28072L12.8937 5.28072L12.8937 4.17648C12.8937 3.56662 12.3881 3.07223 11.7644 3.07224ZM10.635 6.75305L13.1089 6.75305C13.1174 6.75305 13.1273 6.75315 13.1385 6.75326C13.2418 6.7543 13.4523 6.7564 13.6432 6.69108C13.9676 6.58009 14.2227 6.33071 14.3362 6.01351C14.403 5.82685 14.4008 5.62105 14.3998 5.52001C14.3997 5.50908 14.3996 5.49938 14.3996 5.49106L14.3996 4.17648C14.3996 2.75348 13.2198 1.59991 11.7644 1.59991L5.3151 1.5999C4.64765 1.59987 4.07256 1.59983 3.61203 1.66037C3.11849 1.72525 2.6454 1.87156 2.26167 2.24676C1.87794 2.62195 1.7283 3.08452 1.66195 3.56709C1.60003 4.01737 1.60006 4.57966 1.6001 5.23226L1.6001 14.3999L4.23528 13.541L6.11756 14.1545L7.99983 13.541L10.635 14.3999L10.635 6.75305Z" fill="#6AC3A0"/>
<path fill-rule="evenodd" clip-rule="evenodd" d="M4 4.8C4 4.35817 4.33579 4 4.75 4L7.25 4C7.66421 4 8 4.35817 8 4.8C8 5.24183 7.66421 5.6 7.25 5.6L4.75 5.6C4.33579 5.6 4 5.24183 4 4.8Z" fill="#6AC3A0"/>
<path fill-rule="evenodd" clip-rule="evenodd" d="M6.3999 7.2C6.3999 7.64183 6.02066 8 5.55284 8H4.84696C4.37914 8 3.9999 7.64183 3.9999 7.2C3.9999 6.75817 4.37914 6.4 4.84696 6.4H5.55284C6.02066 6.4 6.3999 6.75817 6.3999 7.2Z" fill="#6AC3A0"/>
<path fill-rule="evenodd" clip-rule="evenodd" d="M4 9.60005C4 9.15822 4.31838 8.80005 4.71111 8.80005L6.48889 8.80005C6.88162 8.80005 7.2 9.15822 7.2 9.60005C7.2 10.0419 6.88162 10.4 6.48889 10.4L4.71111 10.4C4.31838 10.4 4 10.0419 4 9.60005Z" fill="#6AC3A0"/>
</svg>
