<svg width="37" height="55" viewBox="0 0 37 55" fill="none" xmlns="http://www.w3.org/2000/svg">
<path fill-rule="evenodd" clip-rule="evenodd" d="M11.644 28.8902C11.7439 27.9406 12.5652 27.2185 13.5455 27.2185H23.4742C24.4463 27.2185 25.2635 27.9288 25.3735 28.8693L26.672 39.9701C28.1534 42.269 30.8025 42.8545 31.2789 42.8545C31.5281 42.8545 31.8929 42.5522 32.284 42.2284C32.7355 41.8544 33.222 41.4515 33.6057 41.4515C34.0791 41.4515 33.9329 42.0905 33.7333 42.5762C33.6982 42.6615 33.7985 42.7539 33.8832 42.7133C34.3158 42.5058 35.1456 42.1602 35.5745 42.3283C36.1711 42.5622 36.3407 44.4375 35.2256 45.5234C33.43 46.3978 29.1113 46.0383 26.6271 44.45C26.5496 44.6659 26.4587 44.876 26.3556 45.079C26.2712 45.7401 26.1941 46.2668 26.1461 46.4542C25.9732 47.1273 25.031 49.5567 24.8717 49.867C24.7124 50.1772 23.7567 53.9003 23.7567 54.0555C23.7567 54.1372 22.5382 54.1561 21.3719 54.1742C20.7659 54.1836 20.1739 54.1928 19.7744 54.2105C19.8275 53.7452 20.093 52.8143 20.7302 52.8143C21.3673 52.8143 21.6328 52.9178 21.6859 52.9695C21.4735 52.2456 20.9531 50.7357 20.5709 50.4875C20.4573 50.4137 20.2625 50.2785 20.0274 50.1153C19.274 49.5921 18.1057 48.7811 17.8629 48.7811C17.7833 48.7811 17.614 48.7714 17.4025 48.7593C16.7678 48.7229 15.7524 48.6647 15.6329 48.7811C15.5054 48.9052 14.9426 49.5567 14.6771 49.867L13.7214 51.7285L13.2435 54.0555H9.42051C9.84535 53.4867 10.8223 52.4112 11.332 52.6593C11.8417 52.9075 11.7568 51.832 11.6506 51.2631L10.5356 47.8503L10.4456 44.5239C8.00219 46.2969 2.25369 46.282 1.15621 45.2132C0.0411927 44.1273 0.559601 42.5622 1.15622 42.3283C1.52899 42.1822 2.2045 42.4241 2.65895 42.6261C2.80198 42.6897 2.97531 42.5305 2.92513 42.3854C2.77063 41.9385 2.71174 41.4515 3.12503 41.4515C3.5087 41.4515 3.99518 41.8544 4.44673 42.2284C4.83779 42.5522 5.20264 42.8545 5.45184 42.8545C5.9888 42.8545 9.28582 42.1106 10.5603 39.0081C10.5676 38.9987 10.575 38.9893 10.5824 38.98L11.644 28.8902Z" fill="url(#paint0_linear_2563_3439)"/>
<path d="M15.9513 48.7808L14.5177 50.177C14.2899 50.6994 13.7633 52.8946 13.3353 53.7449H12.6957C12.4469 53.7449 13.7757 50.6462 13.562 50.0218C13.4028 49.5564 13.0841 49.4013 13.0841 49.4013L15.3141 48.7808H15.9513Z" fill="url(#paint1_linear_2563_3439)" fill-opacity="0.27"/>
<path d="M18.9785 47.6954C16.5572 47.199 13.6156 48.3675 12.9254 49.4017C13.0847 49.2466 16.4299 48.3159 18.0227 48.7813C19.297 49.1536 20.1466 49.9706 20.4121 50.3325L21.8458 52.9697C21.7395 52.8662 21.4953 52.6594 21.3678 52.6594C21.2404 52.6594 20.4652 52.8662 20.0935 52.9697L19.6157 53.9004L23.5979 53.7454L26.1465 46.4544L26.6244 44.2826L27.5802 44.748L31.7217 45.8338L35.5447 45.3685L36.3411 43.6621L35.3855 42.266L33.3147 42.8865L33.9518 41.6455L33.3147 41.4903L31.2439 42.5762C28.1855 42.2039 26.6775 40.0425 26.3058 39.0083L25.828 34.3545L25.0315 26.9084L17.067 27.2187L18.5535 27.8868C18.8752 28.0314 19.0157 28.4051 18.8997 28.7313C18.4622 29.9613 18.0186 32.0952 18.5006 33.2686C18.8192 34.0442 19.244 34.9233 19.775 35.4404C19.775 35.4404 20.4121 36.0609 19.4563 36.3712C20.728 37.4577 23.7572 38.6981 23.7572 38.6981C23.7572 38.6981 23.5979 40.4562 23.12 41.3352C24.5537 42.7313 25.1907 44.748 24.0758 46.9197C23.5979 47.8505 22.005 48.3159 18.9785 47.6954Z" fill="url(#paint2_linear_2563_3439)" fill-opacity="0.27"/>
<path fill-rule="evenodd" clip-rule="evenodd" d="M26.6372 41.9554C26.813 41.9625 26.9496 42.107 26.9422 42.2782C26.8628 44.1393 26.7826 45.2067 26.5987 46.1619C26.4155 47.1131 26.1306 47.9453 25.6584 49.3249L25.6518 49.3441C25.5351 49.6853 25.3734 50.1437 25.1958 50.6475C24.8025 51.7623 24.3311 53.0986 24.0958 53.8754C24.0359 54.0729 23.8499 54.2101 23.6366 54.2101H19.4148V53.8998C19.4148 53.0744 19.9955 52.5907 20.5989 52.4157C20.8514 52.3425 21.1183 52.3186 21.3682 52.3445C20.7482 51.1228 20.0234 50.3118 19.2764 49.7843C18.3883 49.1573 17.4484 48.9164 16.5708 48.8802C14.8621 48.8098 13.4048 49.5154 13.0945 49.6656C13.0834 49.671 13.0737 49.6756 13.0656 49.6796C12.9077 49.7551 12.7167 49.6919 12.6391 49.5381C12.5614 49.3843 12.6264 49.1984 12.7843 49.1228C12.7929 49.1187 12.8033 49.1136 12.8155 49.1077C13.1384 48.951 14.721 48.1829 16.5978 48.2603C17.5793 48.3007 18.6452 48.5722 19.6503 49.2819C20.6546 49.991 21.5777 51.123 22.2997 52.8521C22.36 52.9967 22.3008 53.1623 22.1614 53.2391C22.022 53.3159 21.8457 53.2799 21.7496 53.1551C21.6932 53.0818 21.5752 53.0089 21.3885 52.9742C21.206 52.9404 20.9887 52.95 20.7808 53.0104C20.4664 53.1016 20.2082 53.2926 20.1029 53.5895H23.5185C23.7673 52.787 24.2237 51.4933 24.6011 50.423C24.7764 49.9258 24.9348 49.4769 25.0474 49.1479C25.527 47.7466 25.7979 46.9533 25.9724 46.0475C26.147 45.1411 26.2261 44.1143 26.3057 42.2524C26.313 42.0812 26.4614 41.9482 26.6372 41.9554Z" fill="#00105F"/>
<path fill-rule="evenodd" clip-rule="evenodd" d="M25.5097 34.2262L24.7142 27.4087L25.3473 27.3386L26.1447 34.1723L26.3767 37.8883C26.4168 38.5294 26.5375 39.1364 26.8521 39.6395C27.5491 40.7538 28.5382 41.4565 29.4182 41.8816C29.8576 42.0939 30.2668 42.2353 30.5922 42.3232C30.926 42.4133 31.1521 42.442 31.2295 42.442C31.2301 42.4419 31.2563 42.4403 31.3165 42.4122C31.375 42.3849 31.4466 42.3417 31.5326 42.2813C31.6819 42.1766 31.8453 42.0412 32.0266 41.8912C32.0572 41.8659 32.0883 41.8401 32.1198 41.8141C32.3315 41.6394 32.5642 41.4516 32.7937 41.3077C33.015 41.169 33.2816 41.0391 33.5563 41.0391C33.6725 41.0391 33.7897 41.063 33.8947 41.1245C34.0014 41.187 34.0744 41.2759 34.1202 41.3716C34.2052 41.5491 34.1995 41.7539 34.1761 41.9182C34.1658 41.9906 34.1504 42.0651 34.1314 42.1398C34.1539 42.1309 34.1768 42.1219 34.1998 42.113C34.4185 42.0288 34.6671 41.9481 34.9077 41.9046C35.1389 41.8629 35.4098 41.8465 35.6441 41.9383C35.8854 42.0329 36.0763 42.2401 36.2104 42.4691C36.3484 42.705 36.4467 42.9974 36.4836 43.3141C36.5577 43.9508 36.3858 44.7116 35.7504 45.3303C35.3945 45.6769 34.7554 45.8782 34.0415 45.9836C33.308 46.092 32.4238 46.109 31.5068 46.0328C29.686 45.8815 27.6583 45.3556 26.3993 44.369L26.7988 43.8856C27.9129 44.7587 29.7907 45.2675 31.561 45.4146C32.4395 45.4876 33.2722 45.4697 33.9459 45.3701C34.6395 45.2676 35.0982 45.088 35.2999 44.8916C35.7795 44.4245 35.9058 43.8598 35.8504 43.384C35.8225 43.1444 35.7489 42.9338 35.6569 42.7765C35.5608 42.6124 35.4632 42.5363 35.4062 42.514C35.3421 42.4888 35.2177 42.4797 35.0238 42.5148C34.8393 42.548 34.6331 42.6135 34.4341 42.69C34.2367 42.766 34.0556 42.8495 33.9232 42.9142C33.8573 42.9466 33.8041 42.974 33.7677 42.9931C33.7495 43.0027 33.7356 43.0101 33.7264 43.015L33.7163 43.0206L33.7141 43.0218L32.8065 43.5244L33.271 42.6141C33.384 42.3928 33.5102 42.0767 33.545 41.8326C33.5576 41.7445 33.5546 41.6895 33.5496 41.6597C33.4658 41.662 33.3318 41.7083 33.1387 41.8294C32.9487 41.9485 32.7451 42.1114 32.5317 42.2875C32.5023 42.3118 32.4726 42.3364 32.4427 42.3611C32.2632 42.5098 32.077 42.6641 31.9052 42.7847C31.8039 42.8558 31.6979 42.9223 31.592 42.9717C31.4889 43.0199 31.3639 43.0625 31.2295 43.0625C31.0664 43.0625 30.7752 43.0166 30.422 42.9211C30.0609 42.8236 29.6137 42.6686 29.135 42.4374C28.1787 41.9754 27.0836 41.2024 26.308 39.9622C25.9144 39.3331 25.7833 38.6081 25.7407 37.926L25.5097 34.2262Z" fill="#00105F"/>
<path d="M5.43816 45.0587C2.63464 45.555 1.50898 43.6625 1.2966 42.7317L0.818726 42.8869L1.2966 44.7484C1.66828 45.0587 2.73022 45.7102 4.00454 45.8342C5.27887 45.9584 8.78323 44.9552 10.3762 44.4382V42.2664C10.2169 42.7317 8.94253 44.4382 5.43816 45.0587Z" fill="black" fill-opacity="0.27"/>
<path fill-rule="evenodd" clip-rule="evenodd" d="M11.4901 34.2262L12.2856 27.4087L11.6526 27.3386L10.8552 34.1723L10.6231 37.8883C10.5831 38.5294 10.4624 39.1364 10.1478 39.6395C9.45079 40.7538 8.46167 41.4565 7.58171 41.8816C7.14219 42.0939 6.73313 42.2353 6.40753 42.3232C6.07394 42.4133 5.8478 42.442 5.77038 42.442C5.7697 42.4419 5.74359 42.4403 5.68334 42.4122C5.62498 42.3849 5.55328 42.3417 5.46724 42.2813C5.31806 42.1766 5.15459 42.0412 4.97328 41.8912C4.94271 41.8659 4.91163 41.8401 4.88002 41.8141C4.66838 41.6394 4.43563 41.4516 4.20612 41.3077C3.98493 41.169 3.71829 41.0391 3.44355 41.0391C3.32739 41.0391 3.21017 41.063 3.10511 41.1245C2.99844 41.187 2.92546 41.2759 2.87965 41.3716C2.79466 41.5491 2.80027 41.7539 2.82375 41.9182C2.83409 41.9906 2.8495 42.0651 2.86855 42.1398C2.84595 42.1309 2.82309 42.1219 2.79999 42.113C2.5814 42.0288 2.33276 41.9481 2.09214 41.9046C1.86095 41.8629 1.59006 41.8465 1.35582 41.9383C1.11451 42.0329 0.923579 42.2401 0.78949 42.4691C0.651413 42.705 0.553221 42.9974 0.516334 43.3141C0.442156 43.9508 0.614094 44.7116 1.24947 45.3303C1.60532 45.6769 2.24446 45.8782 2.95833 45.9836C3.69192 46.092 4.57612 46.109 5.49306 46.0328C7.31392 45.8815 9.34161 45.3556 10.6006 44.369L10.2011 43.8856C9.08695 44.7587 7.20909 45.2675 5.4389 45.4146C4.56035 45.4876 3.72767 45.4697 3.05389 45.3701C2.36039 45.2676 1.90167 45.088 1.70001 44.8916C1.22037 44.4245 1.09401 43.8598 1.14943 43.384C1.17735 43.1444 1.25094 42.9338 1.34302 42.7765C1.43909 42.6124 1.53669 42.5363 1.59369 42.514C1.65776 42.4888 1.78213 42.4797 1.97603 42.5148C2.16049 42.548 2.36677 42.6135 2.56579 42.69C2.76316 42.766 2.94431 42.8495 3.07666 42.9142C3.1426 42.9466 3.19582 42.974 3.23219 42.9931C3.25036 43.0027 3.26429 43.0101 3.27345 43.015L3.28354 43.0206L3.28578 43.0218L4.19336 43.5244L3.72885 42.6141C3.6159 42.3928 3.48971 42.0767 3.45483 41.8326C3.44224 41.7445 3.44521 41.6895 3.45024 41.6597C3.53401 41.662 3.6681 41.7083 3.86119 41.8294C4.05117 41.9485 4.25471 42.1114 4.46816 42.2875C4.49756 42.3118 4.52725 42.3364 4.55713 42.3611C4.73662 42.5098 4.92287 42.6641 5.09468 42.7847C5.19603 42.8558 5.30192 42.9223 5.40786 42.9717C5.51099 43.0199 5.63605 43.0625 5.77038 43.0625C5.93345 43.0625 6.22465 43.0166 6.57786 42.9211C6.93901 42.8236 7.38618 42.6686 7.86483 42.4374C8.8212 41.9754 9.91632 41.2024 10.6919 39.9622C11.0854 39.3331 11.2166 38.6081 11.2592 37.926L11.4901 34.2262ZM3.4228 41.6612C3.4225 41.6613 3.42279 41.6612 3.4228 41.6612V41.6612Z" fill="#00105F"/>
<path d="M9.6707 27.6431H25.4223H25.8536C26.2339 27.6431 26.5422 27.4442 26.5422 27.1989V1.43267C26.5422 1.06465 26.0719 0.763613 25.503 0.791323C11.2389 1.48614 7.1409 16.4919 6.62929 25.6481C6.56766 26.7515 7.9593 27.6431 9.6707 27.6431Z" fill="#F9F9F9"/>
<path fill-rule="evenodd" clip-rule="evenodd" d="M25.8644 1.65258C25.8644 1.40509 25.555 1.21658 25.2054 1.23382C18.3904 1.5699 13.9392 5.36881 11.1202 10.3213C8.30908 15.26 7.17646 21.2584 6.92513 25.8127C6.87162 26.7821 8.07979 27.573 9.58246 27.573H25.5252C25.7125 27.573 25.8644 27.4738 25.8644 27.3514V1.65258ZM25.1543 0.791991C25.9256 0.753956 26.5428 1.16594 26.5428 1.65258V27.3514C26.5428 27.7185 26.0872 28.0161 25.5252 28.0161H9.58246C7.71303 28.0161 6.17921 27.0283 6.24717 25.7968C6.49978 21.2187 7.6378 15.1677 10.4843 10.1669C13.3231 5.17974 17.9168 1.14891 25.1543 0.791991Z" fill="#808080"/>
<path fill-rule="evenodd" clip-rule="evenodd" d="M20.7384 3.86377C20.8423 3.95938 20.8058 4.09095 20.6568 4.15764C17.1225 5.73999 14.621 8.65751 12.9149 12.0012C11.2123 15.3384 10.3191 19.066 9.96518 22.2258C9.95212 22.3421 9.79471 22.4296 9.61351 22.4211C9.43238 22.4128 9.29603 22.3118 9.30909 22.1955C9.66553 19.013 10.5656 15.2493 12.2898 11.8699C14.0107 8.49714 16.5697 5.47274 20.2805 3.81141C20.4295 3.74472 20.6345 3.76816 20.7384 3.86377Z" fill="#8A8A8A"/>
<path d="M21.8359 23.5555C20.5974 25.6484 14.6108 26.1101 10.8315 27.3874L10.6648 27.5001H26.3377L26.0043 0.789551C24.1701 10.2566 23.5032 20.738 21.8359 23.5555Z" fill="#E4E6E5"/>
<path d="M16.7482 40.5591C15.9836 40.1868 16.3234 41.2313 16.5889 41.8001L15.4738 41.3347L14.5181 40.7142C14.73 40.3013 14.9549 39.8617 15.3753 39.6485C15.5995 39.5348 15.8514 39.4731 16.111 39.4731H16.2703L17.3853 39.9385L18.3411 40.5591L18.8189 41.0244C18.5003 41.0244 17.7038 41.0244 16.7482 40.5591Z" fill="url(#paint3_linear_2563_3439)" fill-opacity="0.27"/>
<path d="M7.25401 27.6434C8.75806 9.74397 16.6544 3.06208 20.4145 1.95859C19.6625 1.68462 17.9078 2.60546 17.1244 3.10014L14.1476 5.38323C11.7662 6.93573 9.18629 13.7926 8.19408 17.027L6.62732 26.5018L7.25401 27.6434Z" fill="white"/>
<path fill-rule="evenodd" clip-rule="evenodd" d="M25.8644 1.65258C25.8644 1.40509 25.555 1.21658 25.2054 1.23382C18.3904 1.5699 13.9392 5.36881 11.1202 10.3213C8.30908 15.26 7.17646 20.862 6.92513 25.4163C6.87162 26.3857 8.07979 27.1766 9.58246 27.1766C9.58246 27.1766 25.3378 27.1766 25.5252 27.1766C25.7125 27.1766 25.8644 27.0774 25.8644 26.955V1.65258ZM25.1543 0.791991C25.9256 0.753956 26.5428 1.16594 26.5428 1.65258V27.3514C26.5428 27.7185 26.0872 28.0161 25.5252 28.0161H9.58246C7.71303 28.0161 6.17921 27.0283 6.24717 25.7968C6.49978 21.2187 7.6378 15.1677 10.4843 10.1669C13.3231 5.17974 17.9168 1.14891 25.1543 0.791991Z" fill="#8A8A8A"/>
<path d="M11.1723 47.5401C10.8538 46.299 10.6414 43.6102 10.5352 42.1106L10.2167 42.2657C10.3759 44.0238 10.6945 47.6021 10.6945 47.8503C10.6945 48.0985 11.1193 49.6084 11.3317 50.3323L11.8096 52.5041H12.2874C12.6697 51.8836 11.5972 48.7293 11.1723 47.5401Z" fill="url(#paint4_linear_2563_3439)"/>
<path fill-rule="evenodd" clip-rule="evenodd" d="M10.4047 41.6466C10.58 41.6621 10.7092 41.813 10.6932 41.9836C10.632 42.6395 10.6611 43.8593 10.7521 45.1217C10.843 46.3824 10.9931 47.6513 11.1648 48.4036C11.269 48.8602 11.423 49.35 11.5799 49.8491C11.659 50.1008 11.739 50.3549 11.8136 50.6083C11.9224 50.9777 12.0182 51.3418 12.0743 51.675C12.1135 51.9078 12.1356 52.1381 12.1245 52.3522C12.3609 52.4494 12.5717 52.5965 12.7103 52.7953C12.8091 52.9371 12.7712 53.13 12.6256 53.2262C12.4801 53.3225 12.282 53.2856 12.1831 53.1439C12.1174 53.0496 11.98 52.9496 11.7694 52.8857C11.5631 52.823 11.3105 52.803 11.0497 52.8469C10.6463 52.9148 10.224 53.1347 9.92743 53.5901H13.1333C13.1881 52.8748 13.324 51.8982 13.7094 50.9785C14.1531 49.9197 14.9404 48.9091 16.3339 48.485C16.5019 48.4339 16.6806 48.525 16.733 48.6886C16.7855 48.8521 16.692 49.0262 16.5241 49.0772C15.3688 49.4288 14.6972 50.2633 14.2993 51.2129C13.899 52.1683 13.7891 53.2124 13.7503 53.917C13.7412 54.0816 13.6015 54.2106 13.4322 54.2106H9.42038C9.31649 54.2106 9.2191 54.1612 9.15953 54.0783C9.09988 53.9954 9.08546 53.8895 9.12095 53.7944C9.48047 52.8314 10.2163 52.3575 10.9412 52.2354C11.1269 52.2043 11.312 52.196 11.49 52.2083C11.4879 52.0832 11.4731 51.9389 11.4456 51.7754C11.3954 51.478 11.3077 51.1414 11.201 50.7793C11.1336 50.5502 11.0579 50.3091 10.9807 50.0635C10.8195 49.5502 10.6523 49.0179 10.5428 48.5382C10.3605 47.7393 10.208 46.4329 10.1166 45.1651C10.0253 43.8989 9.99244 42.6367 10.0586 41.9275C10.0746 41.7568 10.2296 41.631 10.4047 41.6466Z" fill="#00105F"/>
<path d="M17.1532 31.2875C17.1532 33.0739 15.7338 34.5219 13.983 34.5219C12.2322 34.5219 10.8129 33.0739 10.8129 31.2875C10.8129 29.5013 12.2322 28.0532 13.983 28.0532C15.7338 28.0532 17.1532 29.5013 17.1532 31.2875Z" fill="white"/>
<path fill-rule="evenodd" clip-rule="evenodd" d="M13.983 28.2084C12.327 28.2084 10.9721 29.5802 10.9721 31.2877C10.9721 32.9951 12.327 34.3668 13.983 34.3668C15.6389 34.3668 16.9939 32.9951 16.9939 31.2877C16.9939 29.5802 15.6389 28.2084 13.983 28.2084ZM10.6536 31.2877C10.6536 29.4225 12.1373 27.8982 13.983 27.8982C15.8288 27.8982 17.3125 29.4225 17.3125 31.2877C17.3125 33.1527 15.8288 34.6771 13.983 34.6771C12.1373 34.6771 10.6536 33.1527 10.6536 31.2877Z" fill="#00105F"/>
<path d="M26.2098 31.4346C26.2098 33.3021 24.7904 34.8159 23.0395 34.8159C21.2887 34.8159 19.8694 33.3021 19.8694 31.4346C19.8694 29.5671 21.2887 28.0532 23.0395 28.0532C24.7904 28.0532 26.2098 29.5671 26.2098 31.4346Z" fill="white"/>
<path fill-rule="evenodd" clip-rule="evenodd" d="M23.0401 28.2084C21.3906 28.2084 20.0292 29.6393 20.0292 31.4347C20.0292 33.23 21.3906 34.6609 23.0401 34.6609C24.6897 34.6609 26.0511 33.23 26.0511 31.4347C26.0511 29.6393 24.6897 28.2084 23.0401 28.2084ZM19.7107 31.4347C19.7107 29.4951 21.188 27.8982 23.0401 27.8982C24.8923 27.8982 26.3697 29.4951 26.3697 31.4347C26.3697 33.3742 24.8923 34.9711 23.0401 34.9711C21.188 34.9711 19.7107 33.3742 19.7107 31.4347Z" fill="#00105F"/>
<path d="M21.9834 35.8458C19.568 37.3747 15.2405 36.1889 13.3786 35.4048L11.7181 34.8167C11.6678 35.0617 11.5973 35.787 11.7181 36.7278C11.8388 37.6688 11.9752 38.492 12.171 39.2272C12.5232 40.5502 14.224 43.2259 18.2093 43.3436C21.306 43.4349 23.0234 41.402 23.8006 39.6862C24.1901 38.8264 24.2479 37.8717 24.2479 36.9319V35.8458C23.7648 36.081 22.537 35.9439 21.9834 35.8458Z" fill="#00105F"/>
<path fill-rule="evenodd" clip-rule="evenodd" d="M11.5982 34.6084L13.4375 35.2597L13.4418 35.2615C14.3616 35.6489 15.8944 36.1368 17.4938 36.338C19.0992 36.54 20.7373 36.4487 21.8966 35.7149L21.9496 35.6813L22.0119 35.6923C22.2829 35.7404 22.7207 35.7981 23.1484 35.815C23.3623 35.8233 23.5704 35.8214 23.7522 35.8036C23.9369 35.7857 24.0815 35.7525 24.1766 35.7062L24.4071 35.594V36.9311C24.4071 37.8735 24.3502 38.8565 23.9464 39.748C23.1555 41.494 21.3922 43.5919 18.2046 43.4978C14.1332 43.3777 12.3826 40.6396 12.0167 39.2653C11.8185 38.5206 11.681 37.6897 11.5599 36.7463C11.4374 35.7911 11.5078 35.0489 11.5618 34.7854L11.5982 34.6084ZM11.8464 35.0264C11.8077 35.3507 11.7798 35.9578 11.8761 36.7079C11.9965 37.6463 12.1319 38.4619 12.3251 39.1874C12.6637 40.4593 14.3148 43.0726 18.2142 43.1877C21.2198 43.2764 22.8913 41.3084 23.6549 39.6228C24.03 38.7947 24.0885 37.8682 24.0885 36.9311V36.0634C23.993 36.0865 23.8897 36.1021 23.7839 36.1123C23.5823 36.132 23.3583 36.1337 23.1356 36.125C22.7215 36.1086 22.3009 36.0558 22.0168 36.0082C20.7651 36.7724 19.0578 36.8476 17.453 36.6457C15.8219 36.4405 14.2624 35.9447 13.3197 35.5481L11.8464 35.0264Z" fill="#00105F"/>
<path d="M13.5476 40.7901C13.3969 40.9576 13.2739 41.0919 13.2273 41.1373C14.737 42.7544 15.9447 43.1955 18.3601 43.3425C20.7754 43.4896 22.5366 41.7744 23.1908 40.8432L22.4065 40.1643C22.1081 39.9061 21.6366 39.9737 21.3704 40.2634C20.6811 41.0139 19.4346 41.9285 17.7561 42.0194C16.3445 42.0958 15.4082 41.515 14.8562 40.897C14.5312 40.5331 13.874 40.4273 13.5476 40.7901Z" fill="white"/>
<path fill-rule="evenodd" clip-rule="evenodd" d="M22.3013 40.2806C22.0808 40.0898 21.709 40.1287 21.4899 40.3673C20.7831 41.1367 19.5001 42.0808 17.7657 42.1747C16.2984 42.254 15.3165 41.6483 14.7366 40.9992C14.6025 40.8489 14.3948 40.7483 14.1855 40.7256C13.977 40.7031 13.7884 40.7591 13.6681 40.8928C13.5833 40.9869 13.5056 41.0726 13.4448 41.1382C14.1499 41.8754 14.7863 42.3439 15.5175 42.6491C16.2851 42.9694 17.1695 43.115 18.3707 43.1881C20.6107 43.3245 22.2819 41.7978 22.9792 40.8674L22.3013 40.2806ZM21.2524 40.1604C21.5656 39.8195 22.1369 39.7231 22.5129 40.0488L23.4022 40.8185L23.323 40.9312C22.6565 41.8799 20.8495 43.6499 18.3508 43.4977C17.1365 43.4238 16.2093 43.2754 15.392 42.9342C14.572 42.592 13.8747 42.0611 13.1102 41.242L13.0079 41.1326L13.1154 41.028C13.1573 40.9872 13.276 40.8577 13.4285 40.6883C13.6347 40.4592 13.9377 40.3867 14.2207 40.4173C14.5028 40.4478 14.7862 40.582 14.977 40.7955C15.5012 41.3825 16.3918 41.9383 17.748 41.8649C19.3704 41.7772 20.5804 40.892 21.2524 40.1604Z" fill="#00105F"/>
<path d="M18.3601 38.1973C15.0389 38.0503 13.7809 36.5802 12.9254 35.5511L13.0764 35.4041L17.2112 36.4108C18.0663 36.6188 18.959 36.6324 19.8203 36.45L21.9832 35.9921H22.8889L23.0399 36.1391C21.8322 37.9033 19.1149 38.1973 18.3601 38.1973Z" fill="white"/>
<path d="M18.3594 41.8731C16.4271 42.226 14.9377 41.2361 14.4344 40.697C14.8483 39.4207 15.7034 39.2494 16.5247 39.4537C16.9944 39.4427 17.6683 39.8758 18.2047 40.3053C18.3742 40.4304 18.4845 40.5248 18.5104 40.55C19.8389 38.0801 21.0767 39.1289 21.5297 39.9619C21.278 40.452 20.2918 41.5203 18.3594 41.8731Z" fill="#EEAC57"/>
<path fill-rule="evenodd" clip-rule="evenodd" d="M21.1615 39.2398C21.3784 39.4311 21.5513 39.6682 21.6714 39.8891L21.7098 39.9597L21.6731 40.031C21.398 40.5669 20.3683 41.6641 18.3898 42.0253C16.3883 42.3908 14.8465 41.3677 14.3175 40.801L14.256 40.7351L14.2835 40.65C14.4994 39.9843 14.8394 39.5813 15.2573 39.3807C15.6654 39.1847 16.1191 39.1954 16.5445 39.2981C16.8183 39.2985 17.1265 39.4193 17.4186 39.5787C17.7231 39.7449 18.0327 39.9659 18.3045 40.1833C18.3655 40.2284 18.4196 40.2701 18.4655 40.3063C19.1065 39.1897 19.7609 38.7974 20.367 38.8629C20.6763 38.8964 20.9449 39.0487 21.1615 39.2398ZM18.7058 40.5243C19.3418 39.3852 19.9153 39.1262 20.3317 39.1712C20.5545 39.1954 20.7633 39.3071 20.9477 39.4698C21.1094 39.6124 21.2461 39.789 21.349 39.9624C21.0645 40.4377 20.1239 41.393 18.3311 41.7204C16.5441 42.0467 15.1489 41.1799 14.6166 40.6572C14.8138 40.1023 15.0952 39.8045 15.3983 39.659C15.7199 39.5044 16.0964 39.5067 16.4862 39.6037C17.121 39.7618 17.7443 40.1596 18.1071 40.4269C18.3581 40.628 18.578 40.8281 18.7299 40.9785C18.7916 41.0397 18.8925 41.0405 18.9552 40.9805C19.018 40.9205 19.0188 40.8223 18.9571 40.7611C18.8859 40.6905 18.8011 40.6102 18.7058 40.5243Z" fill="#00105F"/>
<path fill-rule="evenodd" clip-rule="evenodd" d="M18.8433 31.8727H17.8875V31.2522H18.8433V31.8727Z" fill="#00105F"/>
<path d="M15.742 25.2867C14.7632 24.8203 13.6425 25.4748 12.9768 25.9238C12.6481 26.1454 12.5335 26.5137 12.8421 26.7613C13.1782 27.0308 13.5829 26.9329 13.7432 26.8502C14.1402 26.5347 14.8504 26.4176 15.1558 26.3985C15.8377 26.3022 16.0462 26.0083 16.0687 25.7508C16.0864 25.5479 15.9298 25.3763 15.742 25.2867Z" fill="#00105F"/>
<path d="M21.6801 24.9479C22.723 24.3534 23.7507 25.1418 24.3804 25.7301C24.7288 26.0554 25.0109 26.6015 24.7271 26.9816C24.6818 27.0422 24.6274 27.0964 24.5622 27.1387C24.1998 27.374 23.7428 26.7957 23.5918 26.6977C23.2295 26.3449 22.5352 26.1587 22.2332 26.1097C21.4996 25.931 21.3578 25.5716 21.3982 25.3017C21.4212 25.1474 21.5419 25.0267 21.6801 24.9479Z" fill="#00105F"/>
<path fill-rule="evenodd" clip-rule="evenodd" d="M11.4788 34.4001L13.4969 35.1147L13.5055 35.1184C14.4139 35.501 15.9325 35.9844 17.5147 36.1834C19.109 36.384 20.6996 36.2871 21.8103 35.5841L21.9163 35.5169L22.0409 35.539C22.3061 35.5859 22.7365 35.6427 23.1554 35.6592C23.3647 35.6674 23.5649 35.6653 23.7368 35.6485C23.9144 35.6312 24.0364 35.6005 24.1058 35.5667L24.5669 35.3422V36.9303C24.5669 37.8754 24.5108 38.8866 24.0926 39.8099C23.288 41.5861 21.4789 43.7489 18.2002 43.6521C14.0429 43.5294 12.2424 40.729 11.863 39.3034C11.6652 38.5604 11.4791 37.7643 11.4008 36.7495C11.3714 36.3681 11.3586 35.9435 11.3595 35.5828C11.3604 35.2343 11.3738 34.9117 11.4061 34.7542L11.4788 34.4001ZM12.0024 35.2458C11.9991 35.3443 11.997 35.4583 11.9967 35.5843C11.9958 35.9318 12.0082 36.3402 12.0362 36.703C12.1104 37.665 12.2861 38.4206 12.4797 39.1477C12.8048 40.3685 14.406 42.9194 18.2195 43.0319C21.134 43.1179 22.7597 41.2149 23.5096 39.5595C23.8703 38.7631 23.9297 37.8649 23.9297 36.9303V36.2505C23.8865 36.2567 23.8432 36.2617 23.8002 36.266C23.5888 36.2865 23.3568 36.2881 23.1296 36.2792C22.7356 36.2637 22.3369 36.2158 22.05 36.1701C20.756 36.9341 19.0273 36.9993 17.4331 36.7988C15.7873 36.5917 14.2157 36.0925 13.2614 35.6916L12.0024 35.2458Z" fill="#00105F"/>
<path fill-rule="evenodd" clip-rule="evenodd" d="M14.1601 30.3271C13.9958 30.3148 13.8305 30.322 13.6678 30.3496C13.2048 30.428 12.7963 30.6656 12.5191 31.0177C12.242 31.3696 12.1154 31.8118 12.1632 32.2608C12.2109 32.7099 12.4297 33.1351 12.7784 33.4561C13.127 33.7772 13.5815 33.9721 14.0564 34.0042C14.5312 34.0363 14.9936 33.9034 15.3565 33.6304C15.7195 33.3575 15.958 32.9633 16.0271 32.5221C16.058 32.3255 16.0542 32.1257 16.0176 31.9302C15.8098 32.0738 15.5557 32.1581 15.2814 32.1581C15.0853 32.1581 14.8995 32.115 14.7337 32.0379C14.7291 32.0821 14.7283 32.1268 14.7302 32.1698C14.7317 32.2068 14.7297 32.2439 14.7239 32.2806C14.7016 32.4234 14.6244 32.5509 14.507 32.6392C14.3895 32.7276 14.24 32.7705 14.0863 32.7601C13.9326 32.7498 13.7856 32.6867 13.6728 32.5828C13.5599 32.4789 13.4892 32.3414 13.4737 32.1961C13.4583 32.0508 13.4992 31.9077 13.5889 31.7938C13.6786 31.68 13.8108 31.603 13.9605 31.5777C14.0066 31.5699 14.0532 31.5671 14.0997 31.5692C14.1315 31.5706 14.164 31.5704 14.1964 31.5683C14.0764 31.379 14.0071 31.1559 14.0071 30.9171C14.0071 30.7035 14.0625 30.5025 14.1601 30.3271Z" fill="#00105F"/>
<path fill-rule="evenodd" clip-rule="evenodd" d="M22.7617 30.3271C22.5974 30.3148 22.432 30.322 22.2694 30.3496C21.8064 30.428 21.3978 30.6656 21.1207 31.0177C20.8436 31.3696 20.717 31.8118 20.7648 32.2608C20.8125 32.7099 21.0313 33.1351 21.3799 33.4561C21.7286 33.7772 22.1831 33.9721 22.658 34.0042C23.1327 34.0363 23.5952 33.9034 23.9582 33.6304C24.3211 33.3575 24.5596 32.9633 24.6287 32.5221C24.6596 32.3255 24.6558 32.1257 24.6192 31.9302C24.4113 32.0738 24.1573 32.1581 23.883 32.1581C23.6869 32.1581 23.5012 32.115 23.3352 32.0379C23.3307 32.0821 23.3299 32.1268 23.3318 32.1698C23.3333 32.2068 23.3313 32.2439 23.3255 32.2806C23.3032 32.4234 23.226 32.5509 23.1086 32.6392C22.9911 32.7276 22.8415 32.7705 22.6878 32.7601C22.5342 32.7498 22.3872 32.6867 22.2744 32.5828C22.1615 32.4789 22.0908 32.3414 22.0753 32.1961C22.0599 32.0508 22.1009 31.9077 22.1904 31.7938C22.2801 31.68 22.4123 31.603 22.5621 31.5777C22.6082 31.5699 22.6547 31.5671 22.7013 31.5692C22.733 31.5706 22.7656 31.5704 22.798 31.5683C22.6779 31.379 22.6086 31.1559 22.6086 30.9171C22.6086 30.7035 22.664 30.5025 22.7617 30.3271Z" fill="#00105F"/>
<path d="M18.0582 31.2877C18.0582 33.5612 16.1658 35.4042 13.8313 35.4042C11.4968 35.4042 9.60437 33.5612 9.60437 31.2877C9.60437 29.0143 11.4968 27.1714 13.8313 27.1714C16.1658 27.1714 18.0582 29.0143 18.0582 31.2877Z" fill="url(#paint5_linear_2563_3439)" fill-opacity="0.6"/>
<path fill-rule="evenodd" clip-rule="evenodd" d="M13.8314 27.4819C11.6729 27.4819 9.92303 29.186 9.92303 31.288C9.92303 33.3901 11.6729 35.0942 13.8314 35.0942C15.9899 35.0942 17.7397 33.3901 17.7397 31.288C17.7397 29.186 15.9899 27.4819 13.8314 27.4819ZM9.28589 31.288C9.28589 28.8433 11.321 26.8613 13.8314 26.8613C16.3418 26.8613 18.3769 28.8433 18.3769 31.288C18.3769 33.7328 16.3418 35.7147 13.8314 35.7147C11.321 35.7147 9.28589 33.7328 9.28589 31.288Z" fill="#00105F"/>
<path d="M27.5984 31.729C27.5984 34.0836 25.6382 35.9925 23.2204 35.9925C20.8026 35.9925 18.8425 34.0836 18.8425 31.729C18.8425 29.3744 20.8026 27.4656 23.2204 27.4656C25.6382 27.4656 27.5984 29.3744 27.5984 31.729Z" fill="url(#paint6_linear_2563_3439)" fill-opacity="0.6"/>
<path fill-rule="evenodd" clip-rule="evenodd" d="M23.2204 27.7758C20.9785 27.7758 19.1611 29.5457 19.1611 31.729C19.1611 33.9123 20.9785 35.6822 23.2204 35.6822C25.4623 35.6822 27.2797 33.9123 27.2797 31.729C27.2797 29.5457 25.4623 27.7758 23.2204 27.7758ZM18.5239 31.729C18.5239 29.203 20.6266 27.1553 23.2204 27.1553C25.8142 27.1553 27.9169 29.203 27.9169 31.729C27.9169 34.2549 25.8142 36.3026 23.2204 36.3026C20.6266 36.3026 18.5239 34.2549 18.5239 31.729Z" fill="#00105F"/>
<defs>
<linearGradient id="paint0_linear_2563_3439" x1="10.8555" y1="54.2106" x2="24.7183" y2="28.3977" gradientUnits="userSpaceOnUse">
<stop stop-color="#2C2AD2"/>
<stop offset="0.421114" stop-color="#2BBAFE"/>
</linearGradient>
<linearGradient id="paint1_linear_2563_3439" x1="14.3079" y1="48.7808" x2="14.3079" y2="53.7449" gradientUnits="userSpaceOnUse">
<stop/>
<stop offset="1" stop-opacity="0"/>
</linearGradient>
<linearGradient id="paint2_linear_2563_3439" x1="24.6333" y1="26.9084" x2="24.6333" y2="53.9004" gradientUnits="userSpaceOnUse">
<stop/>
<stop offset="1" stop-opacity="0"/>
</linearGradient>
<linearGradient id="paint3_linear_2563_3439" x1="17.6243" y1="38.8527" x2="17.6243" y2="41.8001" gradientUnits="userSpaceOnUse">
<stop/>
<stop offset="1" stop-opacity="0"/>
</linearGradient>
<linearGradient id="paint4_linear_2563_3439" x1="11.3045" y1="42.1106" x2="11.3045" y2="52.5041" gradientUnits="userSpaceOnUse">
<stop stop-color="white"/>
<stop offset="1" stop-color="white" stop-opacity="0"/>
</linearGradient>
<linearGradient id="paint5_linear_2563_3439" x1="13.8313" y1="27.1714" x2="13.8313" y2="35.4042" gradientUnits="userSpaceOnUse">
<stop stop-color="#2CB0FB" stop-opacity="0.54"/>
<stop offset="1" stop-color="#2C4ADC" stop-opacity="0.49"/>
</linearGradient>
<linearGradient id="paint6_linear_2563_3439" x1="23.2204" y1="27.4656" x2="23.2204" y2="35.9925" gradientUnits="userSpaceOnUse">
<stop stop-color="#2CB0FB" stop-opacity="0.54"/>
<stop offset="1" stop-color="#2C4ADC" stop-opacity="0.49"/>
</linearGradient>
</defs>
</svg>
