<svg width="101" height="22" viewBox="0 0 101 22" fill="none" xmlns="http://www.w3.org/2000/svg">
<path d="M96.405 0H4C1.79086 0 0 1.79086 0 4V18C0 20.2091 1.79086 22 4 22H96.405C98.6141 22 100.405 20.2091 100.405 18V4C100.405 1.79086 98.6141 0 96.405 0Z" fill="#2BBAFE"/>
<path d="M15.5286 15.4626C14.8326 15.4626 14.2159 15.3172 13.6784 15.0264C13.1498 14.7269 12.7357 14.3128 12.4361 13.7841C12.1454 13.2467 12 12.6256 12 11.9207V9.5419C12 8.837 12.1454 8.2203 12.4361 7.6916C12.7357 7.1542 13.1498 6.7401 13.6784 6.4493C14.2159 6.1498 14.8326 6 15.5286 6H16.9295C17.6256 6 18.2379 6.1498 18.7665 6.4493C19.304 6.7401 19.7181 7.1542 20.0088 7.6916C20.3084 8.2203 20.4581 8.837 20.4581 9.5419V11.9207C20.4581 12.6256 20.3084 13.2467 20.0088 13.7841C19.7181 14.3128 19.304 14.7269 18.7665 15.0264C18.2379 15.3172 17.6256 15.4626 16.9295 15.4626H15.5286ZM16.9295 13.8502C17.4405 13.8502 17.8502 13.6652 18.1586 13.2952C18.4758 12.9251 18.6344 12.4405 18.6344 11.8414V9.6211C18.6344 9.022 18.4758 8.5374 18.1586 8.1674C17.8502 7.7974 17.4405 7.6123 16.9295 7.6123H15.5286C15.0176 7.6123 14.6035 7.7974 14.2863 8.1674C13.978 8.5374 13.8238 9.022 13.8238 9.6211V11.8414C13.8238 12.4405 13.978 12.9251 14.2863 13.2952C14.6035 13.6652 15.0176 13.8502 15.5286 13.8502H16.9295Z" fill="white"/>
<path d="M21.7749 8.76195H23.4401V9.47565C23.6251 9.22895 23.8586 9.03065 24.1405 8.88095C24.4313 8.73115 24.7132 8.65625 24.9863 8.65625H25.8189C26.3476 8.65625 26.8145 8.76635 27.2198 8.98665C27.6251 9.19805 27.9379 9.49765 28.1581 9.88535C28.3784 10.2729 28.4885 10.7179 28.4885 11.2201V12.7002C28.4885 13.2465 28.3784 13.7311 28.1581 14.154C27.9379 14.5681 27.6295 14.8897 27.233 15.1187C26.8366 15.3478 26.3784 15.4625 25.8586 15.4625H24.9996C24.7529 15.4625 24.4974 15.4052 24.233 15.2906C23.9775 15.1761 23.7573 15.0218 23.5722 14.828V17.9998H21.7749V8.76195ZM25.6207 13.9161C25.9467 13.9161 26.2066 13.7929 26.4004 13.5462C26.5943 13.2995 26.6912 12.9734 26.6912 12.5681V11.3522C26.6912 11.0086 26.5899 10.7311 26.3872 10.5196C26.1934 10.3082 25.9335 10.2024 25.6075 10.2024H24.8013C24.5458 10.2024 24.3035 10.3082 24.0744 10.5196C23.8454 10.7223 23.678 10.9866 23.5722 11.3126V12.6209C23.6163 13.0086 23.7485 13.3214 23.9687 13.5593C24.1978 13.7972 24.4753 13.9161 24.8013 13.9161H25.6207Z" fill="white"/>
<path d="M32.3145 15.4625C31.7595 15.4625 31.2661 15.361 30.8344 15.1584C30.4115 14.9469 30.0811 14.6562 29.8432 14.2861C29.6053 13.9074 29.4863 13.4756 29.4863 12.991V11.2861C29.4863 10.7664 29.6053 10.3082 29.8432 9.91175C30.0811 9.51525 30.4115 9.20685 30.8344 8.98665C31.2661 8.76635 31.7595 8.65625 32.3145 8.65625H33.3718C34.2176 8.65625 34.896 8.89415 35.407 9.36985C35.9181 9.84565 36.1736 10.48 36.1736 11.2729V12.6738H31.2837V12.991C31.2837 13.2817 31.3762 13.5153 31.5612 13.6915C31.7463 13.8677 31.9974 13.9557 32.3145 13.9557H33.3454C33.6537 13.9557 33.9004 13.8897 34.0855 13.7575C34.2793 13.6165 34.3762 13.4359 34.3762 13.2157H36.1471C36.1471 13.6562 36.0282 14.0483 35.7903 14.3919C35.5524 14.7355 35.2176 14.9998 34.7859 15.1848C34.363 15.3698 33.874 15.4625 33.3189 15.4625H32.3145ZM34.4026 11.3787V11.2729C34.4026 10.9293 34.3101 10.6562 34.1251 10.4535C33.9401 10.2421 33.6934 10.1364 33.385 10.1364H32.3145C31.9974 10.1364 31.7418 10.2465 31.548 10.4668C31.3542 10.687 31.2573 10.9778 31.2573 11.339V11.3787H34.4026Z" fill="white"/>
<path d="M37.3911 8.76195H39.0563V9.55495C39.2501 9.28175 39.5012 9.06595 39.8096 8.90735C40.118 8.73995 40.4263 8.65625 40.7347 8.65625H41.5276C42.2328 8.65625 42.7968 8.87655 43.2188 9.31705C43.6508 9.75755 43.8668 10.3391 43.8668 11.0616V15.3566H42.0698V11.1276C42.0698 10.8544 41.9946 10.6342 41.8448 10.4668C41.7039 10.2994 41.5188 10.2157 41.2898 10.2157H40.4968C40.1884 10.2157 39.9109 10.3302 39.6642 10.5593C39.4263 10.7795 39.2677 11.0703 39.1884 11.4315V15.3566H37.3911V8.76195Z" fill="white"/>
<path d="M48.1438 15.4626C47.1748 15.4626 46.4168 15.1938 45.8708 14.6564C45.3238 14.1101 45.0508 13.3524 45.0508 12.3833H46.8488C46.8488 12.8414 46.9628 13.2026 47.1918 13.467C47.4298 13.7225 47.7558 13.8502 48.1698 13.8502H49.6368C50.0248 13.8502 50.3378 13.7709 50.5758 13.6123C50.8218 13.4449 50.9458 13.2247 50.9458 12.9515V12.5022C50.9458 12.0705 50.6278 11.8018 49.9938 11.696L47.5618 11.2863C46.7688 11.1542 46.1658 10.9031 45.7518 10.533C45.3458 10.1542 45.1438 9.674 45.1438 9.0925V8.3524C45.1438 7.8855 45.2668 7.4758 45.5138 7.1233C45.7688 6.7621 46.1258 6.4846 46.5838 6.2907C47.0508 6.0969 47.5888 6 48.1968 6H49.6898C50.2628 6 50.7688 6.1189 51.2098 6.3568C51.6498 6.5947 51.9898 6.9295 52.2278 7.3612C52.4738 7.7841 52.5978 8.2775 52.5978 8.8414H50.7998C50.7998 8.4714 50.6988 8.1762 50.4958 7.9559C50.2938 7.7269 50.0248 7.6123 49.6898 7.6123H48.1968C47.8268 7.6123 47.5268 7.6916 47.2978 7.8502C47.0778 8.0088 46.9678 8.2203 46.9678 8.4846V8.8414C46.9678 9.2819 47.2718 9.5551 47.8798 9.6608L50.2978 10.0837C51.0998 10.2247 51.7118 10.4758 52.1348 10.837C52.5578 11.1894 52.7688 11.6476 52.7688 12.2115V13.0837C52.7688 13.5507 52.6368 13.9648 52.3728 14.326C52.1168 14.6872 51.7558 14.9692 51.2888 15.1718C50.8218 15.3656 50.2798 15.4626 49.6638 15.4626H48.1438Z" fill="white"/>
<path d="M56.5391 15.4625C55.9841 15.4625 55.4911 15.3566 55.0591 15.1452C54.6361 14.9249 54.3061 14.6165 54.0681 14.2201C53.8391 13.8236 53.7241 13.3654 53.7241 12.8456V11.2994C53.7241 10.7795 53.8431 10.3214 54.0811 9.92495C54.3191 9.51965 54.6491 9.20685 55.0721 8.98665C55.5041 8.76635 55.9971 8.65625 56.5521 8.65625H57.7421C58.2971 8.65625 58.7861 8.76635 59.2091 8.98665C59.6411 9.20685 59.9751 9.51965 60.2131 9.92495C60.4511 10.3214 60.5701 10.7795 60.5701 11.2994V12.8456C60.5701 13.3654 60.4511 13.8236 60.2131 14.2201C59.9751 14.6165 59.6411 14.9249 59.2091 15.1452C58.7861 15.3566 58.2931 15.4625 57.7291 15.4625H56.5391ZM57.7021 13.9161C58.0281 13.9161 58.2881 13.806 58.4821 13.5857C58.6761 13.3566 58.7731 13.0615 58.7731 12.7002V11.4184C58.7731 11.0572 58.6761 10.7664 58.4821 10.5462C58.2881 10.3171 58.0331 10.2024 57.7151 10.2024H56.5791C56.2621 10.2024 56.0061 10.3171 55.8121 10.5462C55.6181 10.7664 55.5221 11.0572 55.5221 11.4184V12.7002C55.5221 13.0615 55.6181 13.3566 55.8121 13.5857C56.0061 13.806 56.2571 13.9161 56.5661 13.9161H57.7021Z" fill="white"/>
<path d="M64.0689 15.4627C63.3729 15.4627 62.8129 15.2292 62.3909 14.7622C61.9679 14.2864 61.7559 13.6653 61.7559 12.8988V8.76221H63.5539V12.9252C63.5539 13.216 63.6239 13.4538 63.7649 13.6389C63.9149 13.8151 64.1089 13.9032 64.3459 13.9032H65.1129C65.4039 13.9032 65.6679 13.7842 65.9059 13.5464C66.1439 13.2997 66.3109 12.9781 66.4079 12.5816V8.76221H68.2049V15.3569H66.5399V14.5111C66.3379 14.7931 66.0869 15.0221 65.7869 15.1983C65.4959 15.3745 65.2139 15.4627 64.9409 15.4627H64.0689Z" fill="white"/>
<path d="M69.7339 8.76224H71.3989V9.60804C71.5669 9.35254 71.8039 9.14554 72.1129 8.98694C72.4299 8.81954 72.7599 8.73584 73.1039 8.73584H74.0029V10.2953H73.1039C72.6369 10.2953 72.2579 10.4362 71.9669 10.7182C71.6769 11.0001 71.5309 11.3613 71.5309 11.8019V15.3569H69.7339V8.76224Z" fill="white"/>
<path d="M77.1368 15.4625C76.5818 15.4625 76.0888 15.3522 75.6568 15.132C75.2338 14.9117 74.9038 14.6034 74.6658 14.2069C74.4368 13.8105 74.3218 13.3522 74.3218 12.8324V11.2861C74.3218 10.7664 74.4368 10.3082 74.6658 9.91175C74.9038 9.51525 75.2338 9.20685 75.6568 8.98665C76.0798 8.76635 76.5688 8.65625 77.1238 8.65625H78.1678C78.6968 8.65625 79.1638 8.76195 79.5688 8.97345C79.9738 9.18485 80.2868 9.48445 80.5068 9.87205C80.7278 10.2509 80.8378 10.6914 80.8378 11.1936H79.0538C79.0538 10.8941 78.9698 10.6562 78.8028 10.48C78.6438 10.295 78.4328 10.2024 78.1678 10.2024H77.1508C76.8418 10.2024 76.5908 10.3171 76.3968 10.5462C76.2118 10.7664 76.1198 11.0572 76.1198 11.4184V12.7002C76.1198 13.0615 76.2168 13.3566 76.4098 13.5857C76.6038 13.806 76.8548 13.9161 77.1638 13.9161H78.1808C78.4628 13.9161 78.6878 13.8149 78.8548 13.6122C79.0318 13.4096 79.1198 13.1408 79.1198 12.806H80.9038C80.9038 13.6077 80.6528 14.2509 80.1508 14.7355C79.6568 15.2201 79.0008 15.4625 78.1808 15.4625H77.1368Z" fill="white"/>
<path d="M84.5458 15.4625C83.9908 15.4625 83.4968 15.361 83.0658 15.1584C82.6428 14.9469 82.3118 14.6562 82.0738 14.2861C81.8368 13.9074 81.7178 13.4756 81.7178 12.991V11.2861C81.7178 10.7664 81.8368 10.3082 82.0738 9.91175C82.3118 9.51525 82.6428 9.20685 83.0658 8.98665C83.4968 8.76635 83.9908 8.65625 84.5458 8.65625H85.6028C86.4488 8.65625 87.1268 8.89415 87.6378 9.36985C88.1488 9.84565 88.4048 10.48 88.4048 11.2729V12.6738H83.5148V12.991C83.5148 13.2817 83.6068 13.5153 83.7918 13.6915C83.9768 13.8677 84.2288 13.9557 84.5458 13.9557H85.5768C85.8848 13.9557 86.1318 13.8897 86.3168 13.7575C86.5108 13.6165 86.6068 13.4359 86.6068 13.2157H88.3778C88.3778 13.6562 88.2588 14.0483 88.0218 14.3919C87.7838 14.7355 87.4488 14.9998 87.0168 15.1848C86.5938 15.3698 86.1048 15.4625 85.5498 15.4625H84.5458ZM86.6338 11.3787V11.2729C86.6338 10.9293 86.5408 10.6562 86.3558 10.4535C86.1708 10.2421 85.9248 10.1364 85.6158 10.1364H84.5458C84.2288 10.1364 83.9728 10.2465 83.7788 10.4668C83.5848 10.687 83.4888 10.9778 83.4888 11.339V11.3787H86.6338Z" fill="white"/>
</svg>
