<svg width="38" height="40" viewBox="0 0 38 40" fill="none" xmlns="http://www.w3.org/2000/svg">
<path d="M17.4997 15.8332V5.36064L13.7827 9.2032L11.8521 7.19446L18.7245 0.000244141L25.752 7.3186L23.848 9.32169L20.2059 5.355L20.2006 15.7372L18.8796 14.3774L17.4997 15.8332Z" fill="url(#paint0_linear_2563_3193)"/>
<path d="M9.81787 17.3342H15.6474L16.3159 16.595V10.4333L9.81787 17.3342Z" fill="#7ABAE3"/>
<path d="M28.351 16.9563H22.5215L21.7834 16.2002V10.0498L28.351 16.9563Z" fill="#7ABAE3"/>
<path d="M17.4997 24.1614V34.6395L13.7827 30.797L11.8521 32.8057L18.7245 39.9999L25.752 32.6816L23.848 30.6728L20.2059 34.6452L20.2006 24.2573L18.8796 25.6171L17.4997 24.1614Z" fill="url(#paint1_linear_2563_3193)"/>
<path d="M22.7893 18.6035H32.7209L29.0788 14.682L30.9774 12.645L37.8017 19.8957L30.8651 27.3099L28.9611 25.3012L32.7262 21.4586L22.8802 21.453L24.1691 20.0593L22.7893 18.6035Z" fill="url(#paint2_linear_2563_3193)"/>
<path d="M15.2104 18.6035H5.28412L8.92623 14.682L7.02228 12.645L0.197998 19.8957L7.13994 27.3099L9.03855 25.3012L5.27877 21.4586L15.1194 21.453L13.8305 20.0593L15.2104 18.6035Z" fill="url(#paint3_linear_2563_3193)"/>
<path d="M9.46729 23.0386H15.2968L15.9653 23.7721V29.9394L9.46729 23.0386Z" fill="#7ABAE3"/>
<path d="M28.351 23.0444H22.5215L21.7834 23.8005V29.9509L28.351 23.0444Z" fill="#7ABAE3"/>
<defs>
<linearGradient id="paint0_linear_2563_3193" x1="18.802" y1="15.8332" x2="18.802" y2="0.000244141" gradientUnits="userSpaceOnUse">
<stop offset="0.0885" stop-color="#7ABAE3"/>
<stop offset="0.1913" stop-color="#699ED1"/>
<stop offset="0.3094" stop-color="#5B85C1"/>
<stop offset="0.4197" stop-color="#5075B7"/>
<stop offset="0.518" stop-color="#496CB1"/>
<stop offset="0.5945" stop-color="#4769AF"/>
</linearGradient>
<linearGradient id="paint1_linear_2563_3193" x1="18.802" y1="22.3" x2="18.802" y2="44.6318" gradientUnits="userSpaceOnUse">
<stop offset="0.0885" stop-color="#7ABAE3"/>
<stop offset="0.1913" stop-color="#699ED1"/>
<stop offset="0.3094" stop-color="#5B85C1"/>
<stop offset="0.4197" stop-color="#5075B7"/>
<stop offset="0.518" stop-color="#496CB1"/>
<stop offset="0.5945" stop-color="#4769AF"/>
</linearGradient>
<linearGradient id="paint2_linear_2563_3193" x1="22.7893" y1="19.9775" x2="37.8017" y2="19.9775" gradientUnits="userSpaceOnUse">
<stop offset="0.2666" stop-color="#7ABAE3"/>
<stop offset="0.3905" stop-color="#76BDCC"/>
<stop offset="0.537" stop-color="#71C0B4"/>
<stop offset="0.6516" stop-color="#6DC2A4"/>
<stop offset="0.7191" stop-color="#6AC49F"/>
</linearGradient>
<linearGradient id="paint3_linear_2563_3193" x1="15.2104" y1="19.9775" x2="0.198052" y2="19.9775" gradientUnits="userSpaceOnUse">
<stop offset="0.2728" stop-color="#7ABAE3"/>
<stop offset="0.298" stop-color="#7ABADD"/>
<stop offset="0.4197" stop-color="#76BEC8"/>
<stop offset="0.5394" stop-color="#71C0B6"/>
<stop offset="0.6549" stop-color="#6EC1A9"/>
<stop offset="0.7646" stop-color="#6BC3A2"/>
<stop offset="0.8622" stop-color="#6AC49F"/>
</linearGradient>
</defs>
</svg>
