<svg width="53" height="41" viewBox="0 0 53 41" fill="none" xmlns="http://www.w3.org/2000/svg">
<path d="M26.8031 0L16.9365 21.6316L21.5514 25.9085L26.4741 30.4762L31.3944 25.9085L36.2248 21.431L26.8031 0Z" fill="url(#paint0_linear_122_1517)"/>
<path d="M0 5.93018L8.27914 40.6103L16.931 21.6337L0 5.93018Z" fill="#69BDFA"/>
<path d="M21.5485 25.9095L16.9377 21.6326L8.28418 40.6083H15.5455L26.4769 30.4772L21.5485 25.9095Z" fill="url(#paint1_linear_122_1517)"/>
<path d="M36.231 21.4311L44.6697 40.6091L52.9554 5.93555L36.231 21.4311Z" fill="#69BDFA"/>
<path d="M31.4019 25.9076L26.48 30.4729L37.4081 40.6065H44.6719L36.2347 21.4285L31.4019 25.9076Z" fill="url(#paint2_linear_122_1517)"/>
<path d="M15.5435 40.6079H37.4037L26.4748 30.4744L15.5435 40.6079Z" fill="#2868F3"/>
<defs>
<linearGradient id="paint0_linear_122_1517" x1="25.1919" y1="-7.71049" x2="28.6432" y2="31.6975" gradientUnits="userSpaceOnUse">
<stop stop-color="#2C2AD2"/>
<stop offset="1" stop-color="#2BBAFE"/>
</linearGradient>
<linearGradient id="paint1_linear_122_1517" x1="17.3805" y1="21.6326" x2="17.3805" y2="40.6083" gradientUnits="userSpaceOnUse">
<stop stop-color="#2863E4"/>
<stop offset="1" stop-color="#3A87F4"/>
</linearGradient>
<linearGradient id="paint2_linear_122_1517" x1="35.5759" y1="21.4285" x2="35.5759" y2="40.6065" gradientUnits="userSpaceOnUse">
<stop stop-color="#2863E4"/>
<stop offset="1" stop-color="#3A87F4"/>
</linearGradient>
</defs>
</svg>
