<svg width="200" height="60" viewBox="0 0 200 60" fill="none" xmlns="http://www.w3.org/2000/svg">
<path d="M69.0464 38.6454H60.3802L58.1302 43.4663H54.8347L64.8458 22.3594L74.5121 43.4632H71.1687L69.0464 38.6454ZM67.8013 35.8267L64.8003 29.0735L61.654 35.8267H67.8013Z" fill="#12153E"/>
<path d="M75.8952 30.9385L79.1995 37.9744L82.4894 30.9385H85.8089L79.1724 43.4592L72.5925 30.9385H75.8952Z" fill="#12153E"/>
<path d="M98.2967 37.8854H89.1427C89.1721 38.7979 89.535 39.6697 90.1652 40.3416C90.4677 40.6405 90.83 40.8749 91.2293 41.0298C91.6286 41.1848 92.0562 41.257 92.4854 41.242C93.1336 41.2672 93.7728 41.0868 94.3083 40.7276C94.9519 40.1868 95.4971 39.5426 95.9206 38.8226L98.4108 40.185C98.0642 40.776 97.6557 41.3299 97.192 41.8379C96.7888 42.2758 96.3255 42.6566 95.8152 42.9693C95.3238 43.266 94.7878 43.485 94.2269 43.6184C93.6214 43.7595 93.0008 43.8286 92.3784 43.8243C91.527 43.8607 90.6774 43.7189 89.8862 43.4084C89.0949 43.0979 88.3801 42.6258 87.7891 42.0234C86.5932 40.7038 85.9717 38.9772 86.0579 37.2136C85.9756 35.4599 86.5746 33.7409 87.734 32.4037C88.9217 31.2508 90.5223 30.6 92.193 30.5904C93.8638 30.5809 95.472 31.2135 96.6732 32.3528C97.8236 33.7074 98.4049 35.441 98.2991 37.201L98.2967 37.8854ZM95.2677 35.5153C95.1538 34.8356 94.7859 34.222 94.2358 33.7941C93.6856 33.3662 92.9927 33.1546 92.2922 33.2008C91.9491 33.1972 91.6078 33.2501 91.2826 33.3574C90.9715 33.4629 90.6811 33.6196 90.4238 33.8209C90.1636 34.0253 89.94 34.2709 89.7621 34.5475C89.5713 34.8454 89.4296 35.1709 89.3423 35.5121L95.2677 35.5153Z" fill="#12153E"/>
<path d="M108.27 33.0747L105.831 34.3486C105.448 33.576 104.972 33.1903 104.403 33.1913C104.146 33.1854 103.896 33.2787 103.708 33.4513C103.613 33.5369 103.538 33.6416 103.489 33.7582C103.439 33.8748 103.416 34.0007 103.42 34.127C103.42 34.6072 103.988 35.083 105.124 35.5544C106.281 35.9703 107.351 36.589 108.282 37.3803C108.847 37.9955 109.139 38.805 109.096 39.6314C109.107 40.2041 108.991 40.7724 108.755 41.2966C108.52 41.8208 108.171 42.2884 107.733 42.667C107.139 43.1675 106.431 43.5207 105.668 43.6969C104.906 43.873 104.112 43.8669 103.353 43.6791C102.594 43.4913 101.891 43.1273 101.305 42.6178C100.719 42.1082 100.267 41.468 99.9857 40.7511L102.502 39.6063C102.716 40.0204 102.985 40.4053 103.3 40.7511C103.647 41.0724 104.108 41.2478 104.585 41.2396C105.581 41.2396 106.079 40.7939 106.08 39.9023C106.08 39.3881 105.696 38.9082 104.926 38.4624C104.629 38.3168 104.332 38.1753 104.035 38.038C103.738 37.9007 103.436 37.7593 103.13 37.6136C102.449 37.3253 101.834 36.9054 101.321 36.3789C100.858 35.8063 100.62 35.0891 100.652 34.3588C100.637 33.8551 100.731 33.3541 100.928 32.8886C101.125 32.4232 101.42 32.0038 101.794 31.6583C102.558 30.9516 103.575 30.5682 104.625 30.5911C105.419 30.5874 106.195 30.8241 106.847 31.2688C107.499 31.7135 107.996 32.3447 108.269 33.0762L108.27 33.0747Z" fill="#12153E"/>
<path d="M111.077 21.7449H114.03V31.9808C114.963 31.1018 116.203 30.6053 117.497 30.5926C118.141 30.565 118.783 30.6736 119.38 30.9111C119.977 31.1486 120.515 31.5094 120.958 31.9691C121.787 33.0678 122.179 34.4262 122.059 35.7885V43.4664H119.106V36.0617C119.171 35.2965 118.98 34.5315 118.562 33.8819C118.344 33.6437 118.072 33.4587 117.769 33.3416C117.465 33.2246 117.137 33.1788 116.812 33.2078C116.397 33.1661 115.979 33.2308 115.597 33.3955C115.216 33.5602 114.884 33.8193 114.636 34.1473C114.142 35.1643 113.928 36.2908 114.018 37.414V43.4743H111.065L111.077 21.7449Z" fill="#12153E"/>
<path d="M134.537 30.9394H137.5V43.4671H134.537V42.1541C133.486 43.2075 132.052 43.8085 130.55 43.8248C129.047 43.8411 127.6 43.2714 126.526 42.241C126.427 42.1465 126.332 42.0486 126.241 41.9474C125.077 40.6196 124.464 38.9108 124.524 37.1602C124.465 35.4367 125.079 33.7561 126.241 32.4623C126.773 31.8583 127.434 31.3767 128.177 31.0519C128.921 30.7271 129.728 30.567 130.541 30.5831C131.299 30.5927 132.046 30.7579 132.735 31.0681C133.424 31.3782 134.039 31.8265 134.541 32.384L134.537 30.9394ZM127.537 37.1649C127.49 38.2273 127.841 39.2698 128.523 40.0964C128.831 40.4627 129.22 40.756 129.66 40.9542C130.101 41.1524 130.581 41.2505 131.065 41.2411C131.562 41.2586 132.056 41.1686 132.514 40.9775C132.971 40.7864 133.379 40.499 133.71 40.1355C134.365 39.3025 134.719 38.2806 134.719 37.2291C134.719 36.1776 134.365 35.1557 133.71 34.3227C133.385 33.9573 132.981 33.6674 132.528 33.4739C132.074 33.2804 131.583 33.1881 131.089 33.2038C130.606 33.1962 130.127 33.2937 129.687 33.4894C129.247 33.685 128.857 33.9739 128.545 34.3352C127.862 35.1228 127.502 36.1314 127.535 37.1649H127.537Z" fill="#12153E"/>
<path d="M26.9006 10L17.1824 30.854L21.7278 34.9772L26.5765 39.3807L31.4229 34.9772L36.1806 30.6606L26.9006 10Z" fill="url(#paint0_linear_2617_4443)"/>
<path d="M0.5 15.7173L8.65465 49.1507L17.1764 30.8563L0.5 15.7173Z" fill="#69BDFA"/>
<path d="M21.7244 34.9779L17.183 30.8547L8.65959 49.1484H15.8118L26.5788 39.3814L21.7244 34.9779Z" fill="url(#paint1_linear_2617_4443)"/>
<path d="M36.1866 30.6607L44.4985 49.1493L52.6595 15.7222L36.1866 30.6607Z" fill="#69BDFA"/>
<path d="M31.4302 34.9766L26.5823 39.3778L37.3461 49.1471H44.5006L36.1904 30.6584L31.4302 34.9766Z" fill="url(#paint2_linear_2617_4443)"/>
<path d="M15.8107 49.1477H37.3423L26.5777 39.3784L15.8107 49.1477Z" fill="#2868F3"/>
<path d="M192.941 43.7462C191.565 43.7462 190.461 43.3782 189.629 42.6422C188.797 41.9062 188.381 40.9302 188.381 39.7142H191.093C191.093 40.2262 191.261 40.6422 191.597 40.9622C191.933 41.2662 192.381 41.4182 192.941 41.4182H195.077C195.621 41.4182 196.045 41.3302 196.349 41.1542C196.669 40.9622 196.829 40.7062 196.829 40.3862V39.8582C196.829 39.6342 196.733 39.4422 196.541 39.2822C196.365 39.1222 196.117 39.0102 195.797 38.9462L191.645 38.2262C190.717 38.0662 189.981 37.7302 189.437 37.2182C188.893 36.6902 188.621 36.0822 188.621 35.3942V34.6022C188.621 33.6102 189.013 32.8262 189.797 32.2502C190.597 31.6742 191.693 31.3862 193.085 31.3862H195.005C196.269 31.3862 197.293 31.7302 198.077 32.4182C198.861 33.1062 199.253 34.0102 199.253 35.1302H196.541C196.541 34.6982 196.397 34.3542 196.109 34.0982C195.837 33.8422 195.469 33.7142 195.005 33.7142H193.109C192.549 33.7142 192.117 33.8022 191.813 33.9782C191.509 34.1542 191.357 34.4022 191.357 34.7222V35.2022C191.357 35.4262 191.445 35.6182 191.621 35.7782C191.813 35.9382 192.061 36.0422 192.365 36.0902L196.661 36.8582C197.541 37.0342 198.245 37.3702 198.773 37.8662C199.301 38.3622 199.565 38.9462 199.565 39.6182V40.5062C199.565 41.4982 199.157 42.2902 198.341 42.8822C197.525 43.4582 196.437 43.7462 195.077 43.7462H192.941Z" fill="#4569B1"/>
<path d="M180.131 43.7462C178.659 43.7462 177.475 43.3222 176.579 42.4742C175.699 41.6262 175.259 40.5062 175.259 39.1142V36.0902C175.259 35.1622 175.459 34.3462 175.859 33.6422C176.259 32.9222 176.827 32.3702 177.563 31.9862C178.299 31.5862 179.147 31.3862 180.107 31.3862H182.027C183.403 31.3862 184.507 31.7862 185.339 32.5862C186.187 33.3702 186.611 34.4102 186.611 35.7062H183.899C183.899 35.1302 183.723 34.6662 183.371 34.3142C183.035 33.9462 182.587 33.7622 182.027 33.7622H180.131C179.507 33.7622 178.995 33.9942 178.595 34.4582C178.211 34.9222 178.019 35.5222 178.019 36.2582V38.9462C178.019 39.6662 178.211 40.2502 178.595 40.6982C178.995 41.1462 179.515 41.3702 180.155 41.3702H182.051C182.643 41.3702 183.115 41.1542 183.467 40.7222C183.835 40.2902 184.019 39.7302 184.019 39.0422H186.731C186.731 40.4502 186.299 41.5862 185.435 42.4502C184.587 43.3142 183.459 43.7462 182.051 43.7462H180.131Z" fill="#4569B1"/>
<path d="M166.093 43.7462C164.621 43.7462 163.437 43.3222 162.541 42.4742C161.645 41.6102 161.197 40.4742 161.197 39.0662V36.0902C161.197 35.1622 161.397 34.3462 161.797 33.6422C162.213 32.9222 162.789 32.3702 163.525 31.9862C164.277 31.5862 165.141 31.3862 166.117 31.3862H168.229C169.205 31.3862 170.061 31.5862 170.797 31.9862C171.549 32.3702 172.125 32.9222 172.525 33.6422C172.941 34.3462 173.149 35.1622 173.149 36.0902V39.0662C173.149 40.4742 172.693 41.6102 171.781 42.4742C170.885 43.3222 169.685 43.7462 168.181 43.7462H166.093ZM168.157 41.3702C168.829 41.3702 169.365 41.1462 169.765 40.6982C170.181 40.2342 170.389 39.6342 170.389 38.8982V36.2342C170.389 35.4982 170.189 34.9062 169.789 34.4582C169.389 33.9942 168.853 33.7622 168.181 33.7622H166.165C165.493 33.7622 164.957 33.9942 164.557 34.4582C164.157 34.9062 163.957 35.4982 163.957 36.2342V38.8982C163.957 39.6342 164.157 40.2342 164.557 40.6982C164.957 41.1462 165.477 41.3702 166.117 41.3702H168.157Z" fill="#4569B1"/>
<path d="M147.196 43.5542C146.572 43.5542 146.068 43.3702 145.684 43.0022C145.316 42.6342 145.132 42.1462 145.132 41.5382V26.7542H152.788C154.036 26.7542 155.132 26.9942 156.076 27.4742C157.036 27.9382 157.772 28.6022 158.284 29.4662C158.812 30.3302 159.076 31.3302 159.076 32.4662V37.3622C159.076 39.3942 158.548 40.9382 157.492 41.9942C156.452 43.0342 154.916 43.5542 152.884 43.5542H147.196ZM152.812 41.0822C153.948 41.0822 154.804 40.7622 155.38 40.1222C155.972 39.4662 156.268 38.5142 156.268 37.2662V32.5622C156.268 31.5702 155.94 30.7702 155.284 30.1622C154.628 29.5382 153.772 29.2262 152.716 29.2262H147.94V41.0822H152.812Z" fill="#4569B1"/>
<defs>
<linearGradient id="paint0_linear_2617_4443" x1="25.3136" y1="2.56668" x2="28.5712" y2="40.5702" gradientUnits="userSpaceOnUse">
<stop stop-color="#2C2AD2"/>
<stop offset="1" stop-color="#2BBAFE"/>
</linearGradient>
<linearGradient id="paint1_linear_2617_4443" x1="17.6192" y1="30.8547" x2="17.6192" y2="49.1484" gradientUnits="userSpaceOnUse">
<stop stop-color="#2863E4"/>
<stop offset="1" stop-color="#3A87F4"/>
</linearGradient>
<linearGradient id="paint2_linear_2617_4443" x1="35.5415" y1="30.6584" x2="35.5415" y2="49.1471" gradientUnits="userSpaceOnUse">
<stop stop-color="#2863E4"/>
<stop offset="1" stop-color="#3A87F4"/>
</linearGradient>
</defs>
</svg>
