<svg width="16" height="16" viewBox="0 0 16 16" fill="none" xmlns="http://www.w3.org/2000/svg">
<path fill-rule="evenodd" clip-rule="evenodd" d="M3.15421 3.76327C3.1074 4.10375 3.1058 4.56585 3.1058 5.28073L3.1058 12.3572L4.23516 11.9891L6.11744 12.6025L7.99971 11.9891L9.12908 12.3572L9.12908 4.17648C9.12908 3.78131 9.22006 3.40692 9.38267 3.07224L5.36453 3.07223C4.63339 3.07223 4.16078 3.0738 3.81256 3.11957C3.48599 3.1625 3.38364 3.23181 3.32632 3.28785C3.26901 3.34389 3.19812 3.44397 3.15421 3.76327ZM11.7643 3.07224C11.1405 3.07223 10.6349 3.56662 10.6349 4.17648L10.6349 5.28072L12.8936 5.28072L12.8936 4.17648C12.8936 3.56662 12.388 3.07223 11.7643 3.07224ZM10.6349 6.75305L13.1087 6.75305C13.1173 6.75305 13.1272 6.75315 13.1384 6.75326C13.2417 6.7543 13.4522 6.7564 13.6431 6.69108C13.9675 6.58009 14.2226 6.33071 14.3361 6.01351C14.4029 5.82685 14.4007 5.62105 14.3997 5.52001C14.3995 5.50908 14.3994 5.49938 14.3994 5.49106L14.3994 4.17648C14.3994 2.75348 13.2196 1.59991 11.7643 1.59991L5.31498 1.5999C4.64753 1.59987 4.07244 1.59983 3.61191 1.66037C3.11837 1.72525 2.64527 1.87156 2.26155 2.24676C1.87782 2.62195 1.72818 3.08452 1.66182 3.56709C1.59991 4.01737 1.59994 4.57966 1.59998 5.23226L1.59998 14.3999L4.23516 13.541L6.11744 14.1545L7.99971 13.541L10.6349 14.3999L10.6349 6.75305Z" fill="#66CEF6"/>
<path fill-rule="evenodd" clip-rule="evenodd" d="M4 4.8C4 4.35817 4.33579 4 4.75 4L7.25 4C7.66421 4 8 4.35817 8 4.8C8 5.24183 7.66421 5.6 7.25 5.6L4.75 5.6C4.33579 5.6 4 5.24183 4 4.8Z" fill="#66CEF6"/>
<path fill-rule="evenodd" clip-rule="evenodd" d="M6.40002 7.2C6.40002 7.64183 6.02078 8 5.55297 8H4.84708C4.37927 8 4.00002 7.64183 4.00002 7.2C4.00002 6.75817 4.37927 6.4 4.84708 6.4H5.55297C6.02078 6.4 6.40002 6.75817 6.40002 7.2Z" fill="#66CEF6"/>
<path fill-rule="evenodd" clip-rule="evenodd" d="M4 9.60005C4 9.15822 4.31838 8.80005 4.71111 8.80005L6.48889 8.80005C6.88162 8.80005 7.2 9.15822 7.2 9.60005C7.2 10.0419 6.88162 10.4 6.48889 10.4L4.71111 10.4C4.31838 10.4 4 10.0419 4 9.60005Z" fill="#66CEF6"/>
</svg>
