<svg width="35" height="38" viewBox="0 0 35 38" fill="none" xmlns="http://www.w3.org/2000/svg">
<path d="M16.0827 0.448242H0.31665V16.8272H16.0827V0.448242Z" fill="url(#paint0_linear_2563_3122)"/>
<path d="M35.0001 0.448242H19.2341V16.8272H35.0001V0.448242Z" fill="url(#paint1_linear_2563_3122)"/>
<path d="M15.4506 20.8384H-0.00012207V37.5516H15.4506V20.8384Z" fill="#476AB2"/>
<path d="M35.0001 20.8384H19.2341V37.5516H35.0001V20.8384Z" fill="url(#paint2_linear_2563_3122)"/>
<path d="M13.2424 12.1473L11.4082 12.1409L11.3505 8.80469L13.1918 8.8111L13.2424 12.1473Z" fill="white"/>
<path d="M10.0898 12.1475L8.62826 12.1408L8.51318 3.12231H9.9747L10.0898 12.1475Z" fill="white"/>
<path d="M7.25238 12.1476H5.74691L5.67578 6.46509H7.18126L7.25238 12.1476Z" fill="white"/>
<path d="M4.4151 12.1473L2.88062 12.1408L2.8385 8.80469L4.36696 8.81122L4.4151 12.1473Z" fill="white"/>
<path d="M31.8469 25.8524L23.9769 25.7768L23.9639 24.8496L31.8338 24.9252L31.8469 25.8524Z" fill="white"/>
<path d="M14.1885 13.819L14.1761 12.9158L6.69847 12.8494V12.856L1.89099 12.8162L1.90338 13.7127L9.381 13.7791V13.7725L14.1885 13.819Z" fill="white"/>
<path d="M23.0175 25.8524L22.3967 25.8378L22.3868 24.8496L23.0076 24.8642L23.0175 25.8524Z" fill="white"/>
<path d="M31.8469 28.5265L23.9769 28.4573L23.9639 27.5237L31.8273 27.5928L31.8469 28.5265Z" fill="white"/>
<path d="M23.0175 28.1922L22.3967 28.1825L22.3868 27.5237L23.0076 27.5286L23.0175 28.1922Z" fill="white"/>
<path d="M31.8469 30.8663L23.9834 30.7908L23.9639 29.8635L31.8338 29.9322L31.8469 30.8663Z" fill="white"/>
<path d="M23.0175 30.8663L22.4015 30.8517L22.3868 29.8635L23.0028 29.8782L23.0175 30.8663Z" fill="white"/>
<path d="M31.8471 33.2061L24.2919 33.1558L24.2794 32.5376L31.8346 32.5834L31.8471 33.2061Z" fill="white"/>
<path d="M23.3328 33.2061L22.4016 33.1964L22.3868 32.5376L23.318 32.5425L23.3328 33.2061Z" fill="white"/>
<path d="M21.465 11.3104C21.9588 11.2598 22.312 10.7019 22.254 10.0641C22.1959 9.42629 21.7485 8.95023 21.2546 9.00077C20.7608 9.05131 20.4076 9.60931 20.4656 10.2471C20.5237 10.8849 20.9711 11.3609 21.465 11.3104Z" fill="white"/>
<path d="M30.6239 10.7208C31.1177 10.6702 31.471 10.1123 31.4129 9.47447C31.3548 8.83669 30.9074 8.36063 30.4136 8.41117C29.9197 8.46171 29.5665 9.01971 29.6246 9.65749C29.6827 10.2953 30.1301 10.7713 30.6239 10.7208Z" fill="white"/>
<path d="M27.4672 7.95077C27.961 7.90023 28.3142 7.34223 28.2562 6.70445C28.1981 6.06667 27.7507 5.59061 27.2568 5.64115C26.763 5.69169 26.4098 6.24969 26.4678 6.88747C26.5259 7.52525 26.9733 8.00131 27.4672 7.95077Z" fill="white"/>
<path d="M24.3862 13.7315C24.8801 13.681 25.2333 13.123 25.1752 12.4852C25.1171 11.8474 24.6697 11.3714 24.1759 11.4219C23.6821 11.4725 23.3288 12.0305 23.3869 12.6682C23.445 13.306 23.8924 13.7821 24.3862 13.7315Z" fill="white"/>
<path d="M33.1851 6.41488C33.6789 6.36434 34.0321 5.80634 33.9741 5.16856C33.916 4.53078 33.4685 4.05473 32.9747 4.10527C32.4809 4.15581 32.1277 4.7138 32.1857 5.35158C32.2438 5.98937 32.6912 6.46542 33.1851 6.41488Z" fill="white"/>
<path d="M23.9329 12.816L21.1266 10.4532L21.4671 9.80762L24.2798 12.1704L23.9329 12.816Z" fill="white"/>
<path d="M24.2794 11.6371L26.6374 7.46777L27.1173 7.97154L24.7593 12.1475L24.2794 11.6371Z" fill="white"/>
<path d="M29.9567 9.60215L32.5832 5.12793L33.1099 5.67478L30.4899 10.1419L29.9567 9.60215Z" fill="white"/>
<path d="M29.9697 9.47347L27.4333 7.18578L27.7349 6.46509L30.2712 8.75278L29.9697 9.47347Z" fill="white"/>
<path d="M13.854 31.9891C13.8028 28.4111 11.0856 25.5181 7.78014 25.5181C4.4747 25.5247 1.84058 28.4244 1.89172 32.0024L1.9109 33.2062L13.8732 33.1928L13.854 31.9891ZM3.15124 32.009H2.4096L2.4032 31.5103H3.14485L3.15124 32.009ZM3.41977 30.0405L2.72927 29.7345L2.8955 29.2757L3.586 29.5816L3.41977 30.0405ZM7.62031 25.9171H8.08064L8.09343 26.7218H7.63309L7.62031 25.9171ZM4.36601 28.3446L3.83535 27.7793L4.15503 27.4268L4.68569 27.9921L4.36601 28.3446ZM5.84291 27.1807L5.54881 26.4358L5.97078 26.243L6.26488 26.9878L5.84291 27.1807ZM7.88883 32.7007C7.40932 32.7007 7.01932 32.2817 7.00653 31.763C7.00014 31.4038 7.18555 31.0913 7.46047 30.9383L7.85047 26.9745L8.26605 30.9383C8.54097 31.0979 8.73917 31.4038 8.73917 31.763C8.74556 32.2817 8.36195 32.7007 7.88883 32.7007ZM9.83246 27.1741L9.4041 26.9812L9.67902 26.2363L10.1074 26.4292L9.83246 27.1741ZM11.3413 28.3379L11.0089 27.9854L11.5267 27.4135L11.8592 27.766L11.3413 28.3379ZM12.1533 29.5749L12.8374 29.269L13.0228 29.7279L12.3387 30.0338L12.1533 29.5749ZM13.4064 32.0024H12.6648L12.6584 31.5036H13.4L13.4064 32.0024Z" fill="white"/>
<defs>
<linearGradient id="paint0_linear_2563_3122" x1="16.0791" y1="8.63958" x2="0.315312" y2="8.63958" gradientUnits="userSpaceOnUse">
<stop stop-color="#929497"/>
<stop offset="1" stop-color="#7A7D80"/>
</linearGradient>
<linearGradient id="paint1_linear_2563_3122" x1="37.309" y1="-3.00881" x2="16.0199" y2="19.5328" gradientUnits="userSpaceOnUse">
<stop offset="0.2327" stop-color="#28A8E0"/>
<stop offset="0.8321" stop-color="#29ABE2"/>
</linearGradient>
<linearGradient id="paint2_linear_2563_3122" x1="34.9978" y1="29.1913" x2="19.234" y2="29.1913" gradientUnits="userSpaceOnUse">
<stop stop-color="#F79964"/>
<stop offset="1" stop-color="#CF564D"/>
</linearGradient>
</defs>
</svg>
