<svg width="41" height="40" viewBox="0 0 41 40" fill="none" xmlns="http://www.w3.org/2000/svg">
<path fill-rule="evenodd" clip-rule="evenodd" d="M15.3874 9.28568L6.92944 7.80075L7.04287 7.14282L15.5009 8.62775L15.3874 9.28568Z" fill="#878887"/>
<path fill-rule="evenodd" clip-rule="evenodd" d="M26.2151 9.57559L16.2322 9.99986L16.2151 8.99556L26.198 8.57129L26.2151 9.57559Z" fill="#878887"/>
<path fill-rule="evenodd" clip-rule="evenodd" d="M20.5017 2.03809L7.90057 7.85728L7.64453 7.2479L20.2456 1.42871L20.5017 2.03809Z" fill="#878887"/>
<path fill-rule="evenodd" clip-rule="evenodd" d="M32.4398 6.42871L20.5012 2.07512L20.7055 1.42871L32.6441 5.7823L32.4398 6.42871Z" fill="#878887"/>
<path fill-rule="evenodd" clip-rule="evenodd" d="M38.4902 19.2855L31.929 5.99327L32.5105 5.71411L39.0718 19.0064L38.4902 19.2855Z" fill="#878887"/>
<path fill-rule="evenodd" clip-rule="evenodd" d="M31.929 6.26323L27.2109 8.57125L26.929 8.02213L31.647 5.71411L31.929 6.26323Z" fill="#878887"/>
<path fill-rule="evenodd" clip-rule="evenodd" d="M39.071 20.2204L36.8908 26.4286L36.2139 26.2082L38.3941 20L39.071 20.2204Z" fill="#878887"/>
<path fill-rule="evenodd" clip-rule="evenodd" d="M33.3569 34.1191L22.9028 38.5713L22.6426 38.0235L33.0966 33.5713L33.3569 34.1191Z" fill="#878887"/>
<path fill-rule="evenodd" clip-rule="evenodd" d="M21.7173 38.5715L6.92944 33.4203L7.14157 32.8572L21.9294 38.0084L21.7173 38.5715Z" fill="#878887"/>
<path fill-rule="evenodd" clip-rule="evenodd" d="M22.1864 38.5715L16.9294 33.3292L17.3867 32.8572L22.6437 38.0994L22.1864 38.5715Z" fill="#878887"/>
<path fill-rule="evenodd" clip-rule="evenodd" d="M36.9301 28.1035L34.5867 32.8572L34.073 32.6108L36.4164 27.8572L36.9301 28.1035Z" fill="#878887"/>
<path fill-rule="evenodd" clip-rule="evenodd" d="M33.7659 33.5714L27.6431 30.5658L27.9488 30L34.0716 33.0057L33.7659 33.5714Z" fill="#878887"/>
<path fill-rule="evenodd" clip-rule="evenodd" d="M33.3478 33.5715L7.64453 33.2778L7.65558 32.8572L33.3588 33.1508L33.3478 33.5715Z" fill="#878887"/>
<path fill-rule="evenodd" clip-rule="evenodd" d="M26.215 30.5345L17.8168 32.8571L17.6436 32.3226L26.0417 30L26.215 30.5345Z" fill="#878887"/>
<path fill-rule="evenodd" clip-rule="evenodd" d="M39.0716 20.4689L28.0676 29.2857L27.6431 28.8168L38.6471 20L39.0716 20.4689Z" fill="#878887"/>
<path fill-rule="evenodd" clip-rule="evenodd" d="M18.4125 22.143L15.501 9.42536L16.1609 9.28589L19.0724 22.0036L18.4125 22.143Z" fill="#878887"/>
<path fill-rule="evenodd" clip-rule="evenodd" d="M16.5011 32.857L8.35864 26.2089L8.78758 25.7141L16.9301 32.3622L16.5011 32.857Z" fill="#878887"/>
<path fill-rule="evenodd" clip-rule="evenodd" d="M6.92944 32.0188L7.87739 26.4285L8.35801 26.5525L7.41007 32.1428L6.92944 32.0188Z" fill="#878887"/>
<path fill-rule="evenodd" clip-rule="evenodd" d="M6.44313 32.857L4.78613 26.6779L5.272 26.4285L6.92899 32.6077L6.44313 32.857Z" fill="#878887"/>
<path fill-rule="evenodd" clip-rule="evenodd" d="M31.2158 19.9573L8.51354 25.7145L8.35864 25.043L31.0609 19.2859L31.2158 19.9573Z" fill="#878887"/>
<path fill-rule="evenodd" clip-rule="evenodd" d="M38.3575 19.7062L31.9669 20.0002L31.929 19.5799L38.3196 19.2859L38.3575 19.7062Z" fill="#878887"/>
<path fill-rule="evenodd" clip-rule="evenodd" d="M16.9294 32.0102L18.4905 23.5713L19.0723 23.7038L17.5112 32.1427L16.9294 32.0102Z" fill="#878887"/>
<path fill-rule="evenodd" clip-rule="evenodd" d="M26.4964 30L19.0698 23.3162L19.5004 22.8572L26.927 29.541L26.4964 30Z" fill="#878887"/>
<path fill-rule="evenodd" clip-rule="evenodd" d="M31.2147 20.2425L27.5285 29.2857L26.929 29.0432L30.6151 20L31.2147 20.2425Z" fill="#878887"/>
<path fill-rule="evenodd" clip-rule="evenodd" d="M18.644 22.1429L9.78491 15.49L10.2115 15L19.0706 21.6529L18.644 22.1429Z" fill="#878887"/>
<path fill-rule="evenodd" clip-rule="evenodd" d="M8.35864 24.9156L9.32723 15.7144L9.78721 15.7988L8.81862 25.0001L8.35864 24.9156Z" fill="#878887"/>
<path fill-rule="evenodd" clip-rule="evenodd" d="M2.64307 18.051L9.51458 15L9.78592 15.5204L2.91441 18.5714L2.64307 18.051Z" fill="#878887"/>
<path fill-rule="evenodd" clip-rule="evenodd" d="M4.13834 24.9999L1.92896 18.8211L2.57671 18.5713L4.7861 24.75L4.13834 24.9999Z" fill="#878887"/>
<path fill-rule="evenodd" clip-rule="evenodd" d="M7.1474 24.9999L1.92896 18.9753L2.4248 18.5713L7.64324 24.5959L7.1474 24.9999Z" fill="#878887"/>
<path fill-rule="evenodd" clip-rule="evenodd" d="M30.6324 19.2859L26.2141 9.53705L26.7958 9.28589L31.2141 19.0347L30.6324 19.2859Z" fill="#878887"/>
<path fill-rule="evenodd" clip-rule="evenodd" d="M31.2146 18.5232L32.0543 6.42871L32.6432 6.47703L31.8034 18.5716L31.2146 18.5232Z" fill="#878887"/>
<path fill-rule="evenodd" clip-rule="evenodd" d="M21.9285 16.8276L25.6891 9.28589L26.2142 9.60129L22.4535 17.143L21.9285 16.8276Z" fill="#878887"/>
<path fill-rule="evenodd" clip-rule="evenodd" d="M15.501 8.99895L19.8884 2.14282L20.501 2.42955L16.1136 9.28568L15.501 8.99895Z" fill="#878887"/>
<path fill-rule="evenodd" clip-rule="evenodd" d="M1.92896 17.5992L6.36215 7.85718L6.92895 8.11515L2.49576 17.8572L1.92896 17.5992Z" fill="#878887"/>
<path fill-rule="evenodd" clip-rule="evenodd" d="M9.23655 14.2857L6.92944 8.09977L7.47948 7.85718L9.78659 14.0432L9.23655 14.2857Z" fill="#878887"/>
<path fill-rule="evenodd" clip-rule="evenodd" d="M25.7362 8.57139L20.5012 2.56899L20.9806 2.14282L26.2155 8.14522L25.7362 8.57139Z" fill="#878887"/>
<path d="M20.8569 27.143C24.9991 27.143 28.3569 23.6252 28.3569 19.2859C28.3569 14.9465 24.9991 11.4287 20.8569 11.4287C16.7148 11.4287 13.3569 14.9465 13.3569 19.2859C13.3569 23.6252 16.7148 27.143 20.8569 27.143Z" fill="white"/>
<path d="M20.5009 5.71411C13.0045 5.71411 6.92944 11.949 6.92944 19.6427C6.92944 27.3363 13.0045 33.5712 20.5009 33.5712C27.9973 33.5712 34.0723 27.3307 34.0723 19.637C34.0723 11.949 27.9973 5.71411 20.5009 5.71411ZM20.5009 27.3927C16.3301 27.3927 12.9496 23.9232 12.9496 19.6427C12.9496 15.3622 16.3301 11.8927 20.5009 11.8927C24.6716 11.8927 28.0521 15.3622 28.0521 19.6427C28.0521 23.9232 24.6716 27.3927 20.5009 27.3927Z" fill="#66CEF6"/>
<path d="M11.9276 15C12.7166 15 13.3562 14.3604 13.3562 13.5714C13.3562 12.7824 12.7166 12.1428 11.9276 12.1428C11.1386 12.1428 10.499 12.7824 10.499 13.5714C10.499 14.3604 11.1386 15 11.9276 15Z" fill="#4569B2"/>
<path d="M4.78599 13.5713C5.57497 13.5713 6.21456 12.9317 6.21456 12.1427C6.21456 11.3537 5.57497 10.7141 4.78599 10.7141C3.99702 10.7141 3.35742 11.3537 3.35742 12.1427C3.35742 12.9317 3.99702 13.5713 4.78599 13.5713Z" fill="#4569B2"/>
<path d="M11.2135 25C12.0025 25 12.6421 24.3604 12.6421 23.5714C12.6421 22.7824 12.0025 22.1428 11.2135 22.1428C10.4245 22.1428 9.78491 22.7824 9.78491 23.5714C9.78491 24.3604 10.4245 25 11.2135 25Z" fill="#4569B2"/>
<path d="M19.0721 33.5715C19.8611 33.5715 20.5007 32.9319 20.5007 32.1429C20.5007 31.3539 19.8611 30.7144 19.0721 30.7144C18.2831 30.7144 17.6436 31.3539 17.6436 32.1429C17.6436 32.9319 18.2831 33.5715 19.0721 33.5715Z" fill="#4569B2"/>
<path d="M26.2145 37.8571C27.0034 37.8571 27.643 37.2175 27.643 36.4286C27.643 35.6396 27.0034 35 26.2145 35C25.4255 35 24.7859 35.6396 24.7859 36.4286C24.7859 37.2175 25.4255 37.8571 26.2145 37.8571Z" fill="#4569B2"/>
<path d="M28.3575 30C29.1465 30 29.7861 29.3604 29.7861 28.5714C29.7861 27.7824 29.1465 27.1428 28.3575 27.1428C27.5685 27.1428 26.929 27.7824 26.929 28.5714C26.929 29.3604 27.5685 30 28.3575 30Z" fill="#4569B2"/>
<path d="M36.9303 28.5715C37.7193 28.5715 38.3589 27.9319 38.3589 27.1429C38.3589 26.3539 37.7193 25.7144 36.9303 25.7144C36.1413 25.7144 35.5017 26.3539 35.5017 27.1429C35.5017 27.9319 36.1413 28.5715 36.9303 28.5715Z" fill="#4569B2"/>
<path d="M31.9291 22.8571C32.718 22.8571 33.3576 22.2176 33.3576 21.4286C33.3576 20.6396 32.718 20 31.9291 20C31.1401 20 30.5005 20.6396 30.5005 21.4286C30.5005 22.2176 31.1401 22.8571 31.9291 22.8571Z" fill="#4569B2"/>
<path d="M37.6424 17.8571C38.4314 17.8571 39.071 17.2175 39.071 16.4286C39.071 15.6396 38.4314 15 37.6424 15C36.8535 15 36.2139 15.6396 36.2139 16.4286C36.2139 17.2175 36.8535 17.8571 37.6424 17.8571Z" fill="#4569B2"/>
<path d="M30.5001 12.8574C31.2891 12.8574 31.9287 12.2178 31.9287 11.4288C31.9287 10.6398 31.2891 10.0002 30.5001 10.0002C29.7111 10.0002 29.0715 10.6398 29.0715 11.4288C29.0715 12.2178 29.7111 12.8574 30.5001 12.8574Z" fill="#4569B2"/>
<path d="M21.2152 18.5715C22.0042 18.5715 22.6438 17.9319 22.6438 17.1429C22.6438 16.3539 22.0042 15.7144 21.2152 15.7144C20.4262 15.7144 19.7866 16.3539 19.7866 17.1429C19.7866 17.9319 20.4262 18.5715 21.2152 18.5715Z" fill="#4569B2"/>
<path d="M20.5011 8.5715C21.2901 8.5715 21.9297 7.93191 21.9297 7.14293C21.9297 6.35395 21.2901 5.71436 20.5011 5.71436C19.7121 5.71436 19.0725 6.35395 19.0725 7.14293C19.0725 7.93191 19.7121 8.5715 20.5011 8.5715Z" fill="#4569B2"/>
<path d="M13.3592 4.99996C14.1482 4.99996 14.7878 4.36037 14.7878 3.57139C14.7878 2.78242 14.1482 2.14282 13.3592 2.14282C12.5703 2.14282 11.9307 2.78242 11.9307 3.57139C11.9307 4.36037 12.5703 4.99996 13.3592 4.99996Z" fill="#4569B2"/>
<path d="M29.786 5.71432C30.575 5.71432 31.2146 5.07473 31.2146 4.28575C31.2146 3.49677 30.575 2.85718 29.786 2.85718C28.997 2.85718 28.3574 3.49677 28.3574 4.28575C28.3574 5.07473 28.997 5.71432 29.786 5.71432Z" fill="#4569B2"/>
<path d="M4.07164 27.143C4.86062 27.143 5.50021 26.5034 5.50021 25.7145C5.50021 24.9255 4.86062 24.2859 4.07164 24.2859C3.28266 24.2859 2.64307 24.9255 2.64307 25.7145C2.64307 26.5034 3.28266 27.143 4.07164 27.143Z" fill="#4569B2"/>
<path d="M14.0709 37.8571C14.8599 37.8571 15.4995 37.2175 15.4995 36.4286C15.4995 35.6396 14.8599 35 14.0709 35C13.2819 35 12.6423 35.6396 12.6423 36.4286C12.6423 37.2175 13.2819 37.8571 14.0709 37.8571Z" fill="#4569B2"/>
<path fill-rule="evenodd" clip-rule="evenodd" d="M12.6416 4.51471L5.70329 11.4287L5.49878 11.1999L12.4371 4.28589L12.6416 4.51471Z" fill="#4569B2"/>
<path fill-rule="evenodd" clip-rule="evenodd" d="M19.7837 8.11194L12.829 12.8574L12.6409 12.6029L19.5956 7.85742L19.7837 8.11194Z" fill="#4569B2"/>
<path fill-rule="evenodd" clip-rule="evenodd" d="M28.3406 5.0001L14.7839 4.03678L14.7987 3.57153L28.3554 4.53486L28.3406 5.0001Z" fill="#4569B2"/>
<path fill-rule="evenodd" clip-rule="evenodd" d="M19.6599 7.14303L14.7839 4.56689L14.9079 4.28589L19.7839 6.86203L19.6599 7.14303Z" fill="#4569B2"/>
<path fill-rule="evenodd" clip-rule="evenodd" d="M19.7845 7.48678L5.59394 12.1428L5.49878 11.7989L19.6893 7.14282L19.7845 7.48678Z" fill="#4569B2"/>
<path fill-rule="evenodd" clip-rule="evenodd" d="M29.0709 5.3033L20.5945 7.85714L20.4995 7.55385L28.9759 5L29.0709 5.3033Z" fill="#4569B2"/>
<path fill-rule="evenodd" clip-rule="evenodd" d="M29.6627 11.4288L21.2112 8.1324L21.3311 7.85742L29.7826 11.1539L29.6627 11.4288Z" fill="#4569B2"/>
<path fill-rule="evenodd" clip-rule="evenodd" d="M31.0861 21.4284L12.6409 13.8588L12.7671 13.5713L31.2123 21.1409L31.0861 21.4284Z" fill="#4569B2"/>
<path fill-rule="evenodd" clip-rule="evenodd" d="M11.1715 12.8571L5.49878 12.3608L5.54037 12.1428L11.2131 12.6391L11.1715 12.8571Z" fill="#4569B2"/>
<path fill-rule="evenodd" clip-rule="evenodd" d="M4.07031 24.988L4.47549 13.5713L4.7846 13.5831L4.37942 24.9999L4.07031 24.988Z" fill="#4569B2"/>
<path fill-rule="evenodd" clip-rule="evenodd" d="M30.0872 10.7143L29.0703 5.04232L29.482 5L30.4989 10.672L30.0872 10.7143Z" fill="#4569B2"/>
<path fill-rule="evenodd" clip-rule="evenodd" d="M31.6802 20.7142L30.4988 12.2006L30.7459 12.1428L31.9274 20.6564L31.6802 20.7142Z" fill="#4569B2"/>
<path fill-rule="evenodd" clip-rule="evenodd" d="M37.3706 15.7141L29.7844 5.89603L30.0554 5.71411L37.6416 15.5322L37.3706 15.7141Z" fill="#4569B2"/>
<path fill-rule="evenodd" clip-rule="evenodd" d="M37.4616 15.7142L31.2134 12.3688L31.3937 12.1428L37.6419 15.4883L37.4616 15.7142Z" fill="#4569B2"/>
<path fill-rule="evenodd" clip-rule="evenodd" d="M29.0711 12.4217L22.806 17.1428L22.6426 16.8639L28.9077 12.1428L29.0711 12.4217Z" fill="#4569B2"/>
<path fill-rule="evenodd" clip-rule="evenodd" d="M20.6852 8.57129L21.2138 16.391L21.0281 16.4284L20.4995 8.60868L20.6852 8.57129Z" fill="#4569B2"/>
<path fill-rule="evenodd" clip-rule="evenodd" d="M4.78442 24.8331L11.6481 14.2859L11.9273 14.453L5.06363 25.0002L4.78442 24.8331Z" fill="#4569B2"/>
<path fill-rule="evenodd" clip-rule="evenodd" d="M4.78442 25.3987L9.67359 23.5713L9.78442 23.8867L4.89526 25.7141L4.78442 25.3987Z" fill="#4569B2"/>
<path fill-rule="evenodd" clip-rule="evenodd" d="M11.9263 22.5965L20.3307 17.8572L20.4977 18.1179L12.0933 22.8572L11.9263 22.5965Z" fill="#4569B2"/>
<path fill-rule="evenodd" clip-rule="evenodd" d="M11.9262 14.3167L11.4048 22.143L11.2119 22.1122L11.7333 14.2859L11.9262 14.3167Z" fill="#4569B2"/>
<path fill-rule="evenodd" clip-rule="evenodd" d="M21.2127 18.626L19.3358 30.7141L19.0698 30.6594L20.9467 18.5713L21.2127 18.626Z" fill="#737474"/>
<path fill-rule="evenodd" clip-rule="evenodd" d="M37.6418 16.6576L32.8759 20.7144L32.6418 20.4856L37.4078 16.4287L37.6418 16.6576Z" fill="#4569B2"/>
<path fill-rule="evenodd" clip-rule="evenodd" d="M37.6424 17.1776L36.5696 26.4285L36.2139 26.3938L37.2867 17.1428L37.6424 17.1776Z" fill="#4569B2"/>
<path fill-rule="evenodd" clip-rule="evenodd" d="M35.9752 26.4285L32.6418 22.3658L32.8799 22.1428L36.2133 26.2056L35.9752 26.4285Z" fill="#4569B2"/>
<path fill-rule="evenodd" clip-rule="evenodd" d="M31.2126 22.9982L28.6527 27.8572L28.3555 27.7161L30.9154 22.8572L31.2126 22.9982Z" fill="#4569B2"/>
<path fill-rule="evenodd" clip-rule="evenodd" d="M22.2113 18.5713L28.3544 27.7016L28.0688 27.857L21.9258 18.7267L22.2113 18.5713Z" fill="#4569B2"/>
<path fill-rule="evenodd" clip-rule="evenodd" d="M26.9273 28.8565L19.8939 31.4284L19.7844 31.1432L26.8178 28.5713L26.9273 28.8565Z" fill="#4569B2"/>
<path fill-rule="evenodd" clip-rule="evenodd" d="M35.4989 27.5548L29.1134 28.5714L29.0703 28.1594L35.4558 27.1428L35.4989 27.5548Z" fill="#4569B2"/>
<path fill-rule="evenodd" clip-rule="evenodd" d="M11.5058 24.2859L14.0691 34.9188L13.7752 35.0002L11.2119 24.3673L11.5058 24.2859Z" fill="#4569B2"/>
<path fill-rule="evenodd" clip-rule="evenodd" d="M12.1715 24.2859L18.3548 31.2268L18.1096 31.4287L11.9263 24.4879L12.1715 24.2859Z" fill="#4569B2"/>
<path fill-rule="evenodd" clip-rule="evenodd" d="M5.01061 26.4285L13.3559 35.4762L13.1297 35.7142L4.78442 26.6665L5.01061 26.4285Z" fill="#4569B2"/>
<path fill-rule="evenodd" clip-rule="evenodd" d="M14.7928 36.4287L25.4982 36.7484L25.4894 37.143L14.7839 36.8233L14.7928 36.4287Z" fill="#4569B2"/>
<path fill-rule="evenodd" clip-rule="evenodd" d="M18.3554 33.0589L15.0277 35.7143L14.7839 35.5126L18.1116 32.8572L18.3554 33.0589Z" fill="#4569B2"/>
<path fill-rule="evenodd" clip-rule="evenodd" d="M28.3548 30.0728L26.5925 35.7143L26.2119 35.6415L27.9742 30L28.3548 30.0728Z" fill="#4569B2"/>
<path fill-rule="evenodd" clip-rule="evenodd" d="M36.2127 28.0825L27.1517 35.7143L26.927 35.489L35.988 27.8572L36.2127 28.0825Z" fill="#4569B2"/>
<path fill-rule="evenodd" clip-rule="evenodd" d="M13.3559 4.72929L5.93615 11.4287L5.49878 10.9853L12.9185 4.28589L13.3559 4.72929Z" fill="#4569B2"/>
<path fill-rule="evenodd" clip-rule="evenodd" d="M20.4981 8.34152L13.7218 12.8572L13.3552 12.3728L20.1315 7.85718L20.4981 8.34152Z" fill="#4569B2"/>
<path fill-rule="evenodd" clip-rule="evenodd" d="M28.3259 4.99986L14.7839 4.27316L14.8134 3.57129L28.3554 4.29799L28.3259 4.99986Z" fill="#4569B2"/>
<path fill-rule="evenodd" clip-rule="evenodd" d="M20.2217 7.14303L14.7839 4.79753L15.0605 4.28589L20.4982 6.63139L20.2217 7.14303Z" fill="#4569B2"/>
<path fill-rule="evenodd" clip-rule="evenodd" d="M19.7848 7.7864L6.3931 12.1428L6.21338 11.4992L19.6051 7.14282L19.7848 7.7864Z" fill="#4569B2"/>
<path fill-rule="evenodd" clip-rule="evenodd" d="M29.0709 4.97132L20.6875 7.85732L20.4995 7.17189L28.883 4.28589L29.0709 4.97132Z" fill="#4569B2"/>
<path fill-rule="evenodd" clip-rule="evenodd" d="M29.5458 11.4285L21.2112 7.7555L21.448 7.14282L29.7826 10.8159L29.5458 11.4285Z" fill="#4569B2"/>
<path fill-rule="evenodd" clip-rule="evenodd" d="M30.9616 21.4284L12.6409 14.126L12.8915 13.5713L31.2123 20.8737L30.9616 21.4284Z" fill="#4569B2"/>
<path fill-rule="evenodd" clip-rule="evenodd" d="M11.8451 13.5714L6.21338 12.8109L6.29595 12.1428L11.9277 12.9033L11.8451 13.5714Z" fill="#4569B2"/>
<path fill-rule="evenodd" clip-rule="evenodd" d="M4.07031 24.9759L4.64041 13.5713L5.49888 13.5953L4.92879 24.9999L4.07031 24.9759Z" fill="#4569B2"/>
<path fill-rule="evenodd" clip-rule="evenodd" d="M29.8572 10.7143L29.0703 5.08344L29.712 5L30.4989 10.6308L29.8572 10.7143Z" fill="#4569B2"/>
<path fill-rule="evenodd" clip-rule="evenodd" d="M32.008 20.7142L30.4988 12.2573L31.1324 12.1428L32.6416 20.5998L32.008 20.7142Z" fill="#4569B2"/>
<path fill-rule="evenodd" clip-rule="evenodd" d="M37.1182 15.7141L29.7844 6.07159L30.3078 5.71411L37.6416 15.3566L37.1182 15.7141Z" fill="#4569B2"/>
<path fill-rule="evenodd" clip-rule="evenodd" d="M37.2912 16.4285L31.2134 12.0235L31.5641 11.4285L37.6419 15.8334L37.2912 16.4285Z" fill="#4569B2"/>
<path fill-rule="evenodd" clip-rule="evenodd" d="M29.7854 12.6711L22.9967 17.1428L22.6426 16.6145L29.4313 12.1428L29.7854 12.6711Z" fill="#4569B2"/>
<path fill-rule="evenodd" clip-rule="evenodd" d="M21.0912 8.57129L21.9281 16.3545L21.3364 16.4284L20.4995 8.64526L21.0912 8.57129Z" fill="#4569B2"/>
<path fill-rule="evenodd" clip-rule="evenodd" d="M4.78442 24.6714L11.3894 14.2859L11.9273 14.6147L5.32232 25.0002L4.78442 24.6714Z" fill="#4569B2"/>
<path fill-rule="evenodd" clip-rule="evenodd" d="M5.49878 25.1642L10.2819 23.5713L10.4988 24.1212L5.71562 25.7141L5.49878 25.1642Z" fill="#4569B2"/>
<path fill-rule="evenodd" clip-rule="evenodd" d="M11.9263 22.2908L20.857 17.1428L21.212 17.7091L12.2812 22.8571L11.9263 22.2908Z" fill="#4569B2"/>
<path fill-rule="evenodd" clip-rule="evenodd" d="M12.6405 14.3469L11.8217 22.143L11.2119 22.082L12.0307 14.2859L12.6405 14.3469Z" fill="#4569B2"/>
<path fill-rule="evenodd" clip-rule="evenodd" d="M21.927 18.6805L19.6995 30.7141L19.0698 30.6049L21.2973 18.5713L21.927 18.6805Z" fill="#4569B2"/>
<path fill-rule="evenodd" clip-rule="evenodd" d="M37.6418 16.863L33.089 20.7142L32.6418 20.2797L37.1947 16.4285L37.6418 16.863Z" fill="#4569B2"/>
<path fill-rule="evenodd" clip-rule="evenodd" d="M38.3567 17.2124L37.0653 26.4285L36.2139 26.3589L37.5053 17.1428L38.3567 17.2124Z" fill="#4569B2"/>
<path fill-rule="evenodd" clip-rule="evenodd" d="M35.7661 26.4285L32.6418 22.5663L33.089 22.1428L36.2133 26.0051L35.7661 26.4285Z" fill="#4569B2"/>
<path fill-rule="evenodd" clip-rule="evenodd" d="M31.9275 23.131L29.6098 27.8572L29.0703 27.5833L31.3879 22.8572L31.9275 23.131Z" fill="#4569B2"/>
<path fill-rule="evenodd" clip-rule="evenodd" d="M22.4725 17.8572L28.3544 28.2188L27.8076 28.5715L21.9258 18.2098L22.4725 17.8572Z" fill="#4569B2"/>
<path fill-rule="evenodd" clip-rule="evenodd" d="M27.6416 29.2195L20.0219 32.1427L19.7844 31.4946L27.4041 28.5713L27.6416 29.2195Z" fill="#4569B2"/>
<path fill-rule="evenodd" clip-rule="evenodd" d="M35.4987 27.7823L29.8606 28.5714L29.7844 27.9319L35.4226 27.1428L35.4987 27.7823Z" fill="#4569B2"/>
<path fill-rule="evenodd" clip-rule="evenodd" d="M11.878 24.2859L14.7833 34.8386L14.1173 35.0002L11.2119 24.4475L11.878 24.2859Z" fill="#4569B2"/>
<path fill-rule="evenodd" clip-rule="evenodd" d="M12.3981 24.2859L18.3548 31.0357L17.883 31.4287L11.9263 24.6789L12.3981 24.2859Z" fill="#4569B2"/>
<path fill-rule="evenodd" clip-rule="evenodd" d="M5.2614 26.4285L14.0701 35.25L13.5932 35.7142L4.78442 26.8927L5.2614 26.4285Z" fill="#4569B2"/>
<path fill-rule="evenodd" clip-rule="evenodd" d="M15.5148 35.7141L25.4983 36.1261L25.4818 37.1427L15.4983 36.7307L15.5148 35.7141Z" fill="#4569B2"/>
<path fill-rule="evenodd" clip-rule="evenodd" d="M18.3554 33.2342L15.2392 35.7143L14.7839 35.3373L17.9001 32.8572L18.3554 33.2342Z" fill="#4569B2"/>
<path fill-rule="evenodd" clip-rule="evenodd" d="M28.3548 30.1442L26.8564 35.7143L26.2119 35.5701L27.7103 30L28.3548 30.1442Z" fill="#4569B2"/>
<path fill-rule="evenodd" clip-rule="evenodd" d="M36.2128 28.295L28.0467 35.7143L27.6414 35.2765L35.8075 27.8572L36.2128 28.295Z" fill="#4569B2"/>
<path d="M20.1439 2.85697C20.7357 2.85697 21.2154 2.37727 21.2154 1.78554C21.2154 1.19381 20.7357 0.714111 20.1439 0.714111C19.5522 0.714111 19.0725 1.19381 19.0725 1.78554C19.0725 2.37727 19.5522 2.85697 20.1439 2.85697Z" fill="#6AC4A0"/>
<path fill-rule="evenodd" clip-rule="evenodd" d="M20.5011 1.20451C20.2443 1.20451 20.0361 1.46472 20.0361 1.78571C20.0361 2.1067 20.2443 2.36692 20.5011 2.36692C20.7579 2.36692 20.966 2.1067 20.966 1.78571C20.966 1.46473 20.7579 1.20451 20.5011 1.20451ZM19.0725 1.78571C19.0725 0.799492 19.7121 0 20.5011 0C21.2901 0 21.9297 0.799491 21.9297 1.78571C21.9297 2.77194 21.2901 3.57143 20.5011 3.57143C19.7121 3.57143 19.0725 2.77194 19.0725 1.78571Z" fill="#6AC4A0"/>
<path d="M32.2848 6.42875C32.8765 6.42875 33.3562 5.94905 33.3562 5.35732C33.3562 4.76558 32.8765 4.28589 32.2848 4.28589C31.6931 4.28589 31.2134 4.76558 31.2134 5.35732C31.2134 5.94905 31.6931 6.42875 32.2848 6.42875Z" fill="#6AC4A0"/>
<path fill-rule="evenodd" clip-rule="evenodd" d="M32.6419 5.2495C32.3852 5.2495 32.177 5.45767 32.177 5.71446C32.177 5.97125 32.3852 6.17942 32.6419 6.17942C32.8987 6.17942 33.1069 5.97125 33.1069 5.71446C33.1069 5.45767 32.8987 5.2495 32.6419 5.2495ZM31.2134 5.71446C31.2134 4.92548 31.853 4.28589 32.6419 4.28589C33.4309 4.28589 34.0705 4.92548 34.0705 5.71446C34.0705 6.50344 33.4309 7.14303 32.6419 7.14303C31.853 7.14303 31.2134 6.50344 31.2134 5.71446Z" fill="#6AC4A0"/>
<path d="M6.57192 8.57157C7.16365 8.57157 7.64334 8.09187 7.64334 7.50014C7.64334 6.90841 7.16365 6.42871 6.57192 6.42871C5.98018 6.42871 5.50049 6.90841 5.50049 7.50014C5.50049 8.09187 5.98018 8.57157 6.57192 8.57157Z" fill="#6AC4A0"/>
<path fill-rule="evenodd" clip-rule="evenodd" d="M6.92906 6.67772C6.67227 6.67772 6.4641 6.88589 6.4641 7.14268C6.4641 7.39947 6.67227 7.60764 6.92906 7.60764C7.18585 7.60764 7.39402 7.39947 7.39402 7.14268C7.39402 6.88589 7.18585 6.67772 6.92906 6.67772ZM5.50049 7.14268C5.50049 6.3537 6.14008 5.71411 6.92906 5.71411C7.71804 5.71411 8.35763 6.3537 8.35763 7.14268C8.35763 7.93166 7.71804 8.57125 6.92906 8.57125C6.14008 8.57125 5.50049 7.93166 5.50049 7.14268Z" fill="#6AC4A0"/>
<path d="M2.28554 19.2857C2.87727 19.2857 3.35697 18.966 3.35697 18.5715C3.35697 18.177 2.87727 17.8572 2.28554 17.8572C1.69381 17.8572 1.21411 18.177 1.21411 18.5715C1.21411 18.966 1.69381 19.2857 2.28554 19.2857Z" fill="#6AC4A0"/>
<path fill-rule="evenodd" clip-rule="evenodd" d="M2.28571 18.1064C1.96473 18.1064 1.70451 18.3146 1.70451 18.5714C1.70451 18.8282 1.96472 19.0364 2.28571 19.0364C2.6067 19.0364 2.86692 18.8282 2.86692 18.5714C2.86692 18.3146 2.6067 18.1064 2.28571 18.1064ZM0.5 18.5714C0.5 17.7824 1.29949 17.1428 2.28571 17.1428C3.27194 17.1428 4.07143 17.7824 4.07143 18.5714C4.07143 19.3604 3.27194 20 2.28571 20C1.29949 20 0.5 19.3604 0.5 18.5714Z" fill="#6AC4A0"/>
<path d="M7.28603 34.2857C7.87776 34.2857 8.35746 33.806 8.35746 33.2143C8.35746 32.6225 7.87776 32.1428 7.28603 32.1428C6.69429 32.1428 6.2146 32.6225 6.2146 33.2143C6.2146 33.806 6.69429 34.2857 7.28603 34.2857Z" fill="#6AC4A0"/>
<path fill-rule="evenodd" clip-rule="evenodd" d="M6.92906 32.633C6.67227 32.633 6.4641 32.8932 6.4641 33.2142C6.4641 33.5352 6.67227 33.7954 6.92906 33.7954C7.18585 33.7954 7.39402 33.5352 7.39402 33.2142C7.39402 32.8932 7.18585 32.633 6.92906 32.633ZM5.50049 33.2142C5.50049 32.228 6.14008 31.4285 6.92906 31.4285C7.71804 31.4285 8.35763 32.228 8.35763 33.2142C8.35763 34.2004 7.71804 34.9999 6.92906 34.9999C6.14008 34.9999 5.50049 34.2004 5.50049 33.2142Z" fill="#6AC4A0"/>
<path d="M22.9999 39.2857C23.5916 39.2857 24.0713 38.806 24.0713 38.2143C24.0713 37.6225 23.5916 37.1428 22.9999 37.1428C22.4082 37.1428 21.9285 37.6225 21.9285 38.2143C21.9285 38.806 22.4082 39.2857 22.9999 39.2857Z" fill="#6AC4A0"/>
<path fill-rule="evenodd" clip-rule="evenodd" d="M22.9996 38.1064C22.6786 38.1064 22.4184 38.3146 22.4184 38.5714C22.4184 38.8282 22.6786 39.0364 22.9996 39.0364C23.3206 39.0364 23.5808 38.8282 23.5808 38.5714C23.5808 38.3146 23.3206 38.1064 22.9996 38.1064ZM21.2139 38.5714C21.2139 37.7824 22.0134 37.1428 22.9996 37.1428C23.9858 37.1428 24.7853 37.7824 24.7853 38.5714C24.7853 39.3604 23.9858 40 22.9996 40C22.0134 40 21.2139 39.3604 21.2139 38.5714Z" fill="#6AC4A0"/>
<path d="M33.715 34.2857C34.3067 34.2857 34.7864 33.806 34.7864 33.2143C34.7864 32.6225 34.3067 32.1428 33.715 32.1428C33.1233 32.1428 32.6436 32.6225 32.6436 33.2143C32.6436 33.806 33.1233 34.2857 33.715 34.2857Z" fill="#6AC4A0"/>
<path fill-rule="evenodd" clip-rule="evenodd" d="M33.7147 33.1064C33.3937 33.1064 33.1335 33.3146 33.1335 33.5714C33.1335 33.8282 33.3937 34.0364 33.7147 34.0364C34.0357 34.0364 34.2959 33.8282 34.2959 33.5714C34.2959 33.3146 34.0357 33.1064 33.7147 33.1064ZM31.929 33.5714C31.929 32.7824 32.7284 32.1428 33.7147 32.1428C34.7009 32.1428 35.5004 32.7824 35.5004 33.5714C35.5004 34.3604 34.7009 35 33.7147 35C32.7284 35 31.929 34.3604 31.929 33.5714Z" fill="#6AC4A0"/>
<path d="M39.4284 20.7141C40.0201 20.7141 40.4998 20.2345 40.4998 19.6427C40.4998 19.051 40.0201 18.5713 39.4284 18.5713C38.8366 18.5713 38.3569 19.051 38.3569 19.6427C38.3569 20.2345 38.8366 20.7141 39.4284 20.7141Z" fill="#6AC4A0"/>
<path fill-rule="evenodd" clip-rule="evenodd" d="M39.0709 19.0617C38.8141 19.0617 38.6059 19.3219 38.6059 19.6429C38.6059 19.9639 38.8141 20.2241 39.0709 20.2241C39.3277 20.2241 39.5359 19.9639 39.5359 19.6429C39.5359 19.3219 39.3277 19.0617 39.0709 19.0617ZM37.6423 19.6429C37.6423 18.6567 38.2819 17.8572 39.0709 17.8572C39.8599 17.8572 40.4995 18.6567 40.4995 19.6429C40.4995 20.6291 39.8599 21.4286 39.0709 21.4286C38.2819 21.4286 37.6423 20.6291 37.6423 19.6429Z" fill="#6AC4A0"/>
</svg>
